<svg width="78" height="67" fill="none" xmlns="http://www.w3.org/2000/svg"><g opacity=".25"><path d="M26.654 56.812C21.777 35.266 35.291 13.846 56.837 8.97l7.53-1.704a2 2 0 012.391 1.51l1.704 7.528c4.877 21.546-8.637 42.966-30.183 47.843L30.75 65.85a2 2 0 01-2.392-1.509l-1.704-7.529z" fill="#1CD61C"/><path d="M50.217 42.948C51.56 20.898 34.773 1.934 12.722.591L5.018.12A2 2 0 002.9 1.997l-.47 7.705C1.088 31.751 17.875 50.716 39.925 52.06l7.705.469a2 2 0 002.118-1.875l.469-7.705z" fill="#84FF84"/></g></svg>