<svg width="69" height="71" fill="none" xmlns="http://www.w3.org/2000/svg"><path d="M25.654 68.754C6.958 63.335-3.665 44.042 1.754 25.346c5.419-18.697 24.712-29.32 43.409-23.9 2.991.866 4.85 4.242 3.983 7.234-.434 1.496-1.133 2.51-2.58 3.306-1.073.905-2.146 1.81-2.58 3.306-.866 2.991.993 6.367 3.984 7.234l6.731 1.951c10.47 3.035 16.313 13.646 13.278 24.116-4.769 16.453-23.628 25.58-42.325 20.161zM14.842 29.139c-2.992-.867-6.368.992-7.235 3.983-.867 2.992.992 6.368 3.984 7.235 2.991.867 6.367-.992 7.234-3.983.867-2.992-.992-6.368-3.983-7.235zm6.883 18.209c-2.992-.867-6.368.992-7.235 3.983-.867 2.992.992 6.368 3.984 7.235 2.991.867 6.367-.992 7.234-3.984.867-2.991-.992-6.367-3.983-7.234zm18.697 5.419c-2.992-.867-6.368.991-7.235 3.983s.992 6.368 3.983 7.235c2.992.867 6.368-.992 7.235-3.984.867-2.991-.992-6.367-3.983-7.234zM55.975 41.06c-2.992-.867-6.368.992-7.235 3.984-.867 2.991.992 6.367 3.984 7.235 2.991.867 6.367-.992 7.234-3.984.867-2.991-.991-6.368-3.983-7.235z" fill="#CBE5FF"/></svg>