<svg width="21" height="16" viewBox="0 0 21 16" fill="none" xmlns="http://www.w3.org/2000/svg">
<path d="M5.37324 0C4.33187 0 3.40449 0.6875 3.10563 1.7L2.02113 5.375L0.492958 4.85L0 6.35L1.55282 6.875L1.05986 8.575C1.04137 8.64688 1.03213 8.725 1.03521 8.8V14.4C1.03521 14.425 1.03521 14.45 1.03521 14.475V15.2C1.03521 15.6406 1.38952 16 1.82394 16H4.19014L4.46127 15.2H16.5387L16.8099 16H19.1761C19.6105 16 19.9648 15.6406 19.9648 15.2V14.525C19.9679 14.4844 19.9679 14.4406 19.9648 14.4V8.8C19.9679 8.725 19.9586 8.64688 19.9401 8.575L19.4472 6.875L21 6.35L20.507 4.85L18.9789 5.375L17.8944 1.7C17.5955 0.6875 16.6681 0 15.6268 0H5.37324ZM5.37324 1.6H15.6268C15.978 1.6 16.2892 1.83438 16.3908 2.175L17.4014 5.6H3.59859L4.60915 2.175C4.71083 1.83125 5.02201 1.6 5.37324 1.6ZM3.13028 7.2H17.8697L18.3873 8.95V13.6H2.61268V8.95L3.13028 7.2ZM4.58451 8C3.93134 8 3.40141 8.5375 3.40141 9.2C3.40141 9.8625 3.93134 10.4 4.58451 10.4C5.23768 10.4 5.76761 9.8625 5.76761 9.2C5.76761 8.5375 5.23768 8 4.58451 8ZM16.4155 8C15.7623 8 15.2324 8.5375 15.2324 9.2C15.2324 9.8625 15.7623 10.4 16.4155 10.4C17.0687 10.4 17.5986 9.8625 17.5986 9.2C17.5986 8.5375 17.0687 8 16.4155 8ZM7.34507 10.4L6.35915 12.8H8.05986L8.40493 12H12.5951L12.9401 12.8H14.6408L13.6549 10.4H7.34507Z" fill="#9595A2"/>
</svg>
