<svg width="22" height="22" viewBox="0 0 22 22" fill="none" xmlns="http://www.w3.org/2000/svg">
<mask id="path-1-inside-1" fill="white">
<path d="M0 1.1C0 0.492487 0.492487 0 1.1 0H20.9C21.5075 0 22 0.492487 22 1.1V20.9C22 21.5075 21.5075 22 20.9 22H1.1C0.492487 22 0 21.5075 0 20.9V1.1Z"/>
</mask>
<path d="M0.55 10.85C0.163401 10.85 -0.15 11.1634 -0.15 11.55C-0.15 11.9366 0.163401 12.25 0.55 12.25V10.85ZM11.15 7.15C11.15 6.7634 10.8366 6.45 10.45 6.45C10.0634 6.45 9.75 6.7634 9.75 7.15H11.15ZM9.75 11.55C9.75 11.9366 10.0634 12.25 10.45 12.25C10.8366 12.25 11.15 11.9366 11.15 11.55H9.75ZM15.95 10.575C15.5634 10.575 15.25 10.8884 15.25 11.275C15.25 11.6616 15.5634 11.975 15.95 11.975V10.575ZM11.15 17.05C11.15 16.6634 10.8366 16.35 10.45 16.35C10.0634 16.35 9.75 16.6634 9.75 17.05H11.15ZM9.75 21.45C9.75 21.8366 10.0634 22.15 10.45 22.15C10.8366 22.15 11.15 21.8366 11.15 21.45H9.75ZM0.55 12.25H11V10.85H0.55V12.25ZM9.75 7.15V11.55H11.15V7.15H9.75ZM15.95 11.975H21.4371V10.575H15.95V11.975ZM9.75 17.05V21.45H11.15V17.05H9.75ZM1.1 1.4H20.9V-1.4H1.1V1.4ZM20.6 1.1V20.9H23.4V1.1H20.6ZM20.9 20.6H1.1V23.4H20.9V20.6ZM1.4 20.9V1.1H-1.4V20.9H1.4ZM1.1 20.6C1.26569 20.6 1.4 20.7343 1.4 20.9H-1.4C-1.4 22.2807 -0.280711 23.4 1.1 23.4V20.6ZM20.6 20.9C20.6 20.7343 20.7343 20.6 20.9 20.6V23.4C22.2807 23.4 23.4 22.2807 23.4 20.9H20.6ZM20.9 1.4C20.7343 1.4 20.6 1.26569 20.6 1.1H23.4C23.4 -0.280712 22.2807 -1.4 20.9 -1.4V1.4ZM1.1 -1.4C-0.280712 -1.4 -1.4 -0.280711 -1.4 1.1H1.4C1.4 1.26569 1.26569 1.4 1.1 1.4V-1.4Z" fill="#9595A2" fill-opacity="0.7" mask="url(#path-1-inside-1)"/>
</svg>
