<svg width="30" height="27" viewBox="0 0 30 27" fill="none" xmlns="http://www.w3.org/2000/svg">
<path fill-rule="evenodd" clip-rule="evenodd" d="M20.8647 0.00016935C23.0711 0.00357674 25.177 0.922719 26.6799 2.53812C29.8481 5.95525 29.8481 11.2365 26.68 14.6536L15.2841 26.6757C15.2712 26.6893 15.258 26.7026 15.2443 26.7155C14.828 27.1099 14.1707 27.0921 13.7763 26.6757L2.37629 14.6536C-0.792095 11.2361 -0.792095 5.95458 2.37629 2.53709C2.50869 2.39459 2.64626 2.25708 2.7887 2.12467C6.0032 -0.862082 11.0304 -0.677475 14.0172 2.53709L14.5302 3.07917L15.0432 2.53709C16.5484 0.92138 18.6565 0.00272489 20.8647 0.00016935ZM14.5302 24.4524L25.1763 13.2237H25.1774C27.6368 10.6249 27.6189 6.58245 25.1774 3.96704C25.0706 3.85137 24.9593 3.74008 24.8437 3.63335C22.4613 1.43529 18.748 1.58466 16.55 3.96704L15.2841 5.30145C14.867 5.71594 14.1935 5.71594 13.7763 5.30145L12.5105 3.966C12.4037 3.85033 12.2924 3.73904 12.1768 3.63232C9.79441 1.43425 6.08115 1.58363 3.88308 3.966C1.46262 6.57728 1.46262 10.6124 3.88308 13.2237L14.5302 24.4524Z" fill="#171723"/>
</svg>
