<svg width="24" height="22" viewBox="0 0 24 22" fill="none" xmlns="http://www.w3.org/2000/svg">
<path d="M23.703 7.61348L13.7655 0.582232C13.551 0.430498 13.2697 0.410997 13.0363 0.531747C12.8028 0.652544 12.6562 0.893388 12.6562 1.15622V4.68989C9.35213 4.86014 6.26962 6.22795 3.91289 8.58468C1.38961 11.108 0 14.4628 0 18.0312V20.8437C0 21.234 0.316875 21.5469 0.703687 21.5469C1.0133 21.5469 1.29202 21.3421 1.3792 21.0369L1.48744 20.6581C2.92913 15.6121 7.46269 12.0225 12.6562 11.7233V15.2187C12.6562 15.4815 12.8028 15.7224 13.0362 15.8432C13.2697 15.9639 13.551 15.9445 13.7655 15.7927L23.703 8.76145C23.8892 8.62964 24 8.41565 24 8.18747C24 7.95928 23.8893 7.74529 23.703 7.61348ZM14.0625 13.8599V11C14.0625 10.6117 13.7477 10.2968 13.3594 10.2968C11.8503 10.2968 10.3633 10.5419 8.93967 11.0252C5.72423 12.1169 3.075 14.3424 1.43522 17.1945C1.86605 10.9923 7.04958 6.07809 13.3594 6.07809C13.7477 6.07809 14.0625 5.76328 14.0625 5.37497V2.51503L22.0795 8.18747L14.0625 13.8599Z" fill="#D90002"/>
<path fill-rule="evenodd" clip-rule="evenodd" d="M23.703 7.61348L13.7655 0.582232C13.551 0.430498 13.2697 0.410997 13.0363 0.531747C12.8028 0.652544 12.6562 0.893388 12.6562 1.15622V4.68989C9.35213 4.86014 6.26962 6.22795 3.91289 8.58468C1.38961 11.108 0 14.4628 0 18.0312V20.8437C0 21.234 0.316875 21.5469 0.703687 21.5469C1.0133 21.5469 1.29202 21.3421 1.3792 21.0369L1.48744 20.6581C2.91059 15.677 7.34662 12.115 12.4563 11.7365C12.5228 11.7315 12.5895 11.7271 12.6562 11.7233V15.2187C12.6562 15.4815 12.8028 15.7224 13.0362 15.8432C13.2697 15.9639 13.551 15.9445 13.7655 15.7927L23.703 8.76145C23.8892 8.62964 24 8.41565 24 8.18747C24 7.95928 23.8893 7.74529 23.703 7.61348ZM13.1281 15.6655C13.2952 15.752 13.4965 15.738 13.6499 15.6294L23.5874 8.59818C23.7207 8.50387 23.8 8.35075 23.8 8.18747C23.8 8.02415 23.7208 7.87105 23.5875 7.77675L13.65 0.745497C13.4966 0.636953 13.2952 0.622974 13.1282 0.709374M13.1281 15.6655C12.9611 15.5792 12.8562 15.4068 12.8562 15.2187V11.5114L12.6447 11.5236C7.36684 11.8277 2.76034 15.4748 1.29514 20.6032L1.1869 20.9819C1.12455 21.2002 0.925122 21.3469 0.703687 21.3469C0.426489 21.3469 0.2 21.1227 0.2 20.8437V18.0312C0.2 14.5159 1.56854 11.2119 4.05431 8.72611C6.37611 6.40431 9.41191 5.05732 12.6665 4.88962L12.8562 4.87985V1.15622C12.8562 0.968171 12.9611 0.795827 13.1282 0.709374M13.8625 14.2464V11C13.8625 10.7221 13.6372 10.4968 13.3594 10.4968C11.8721 10.4968 10.4068 10.7383 9.00397 11.2146C5.83532 12.2904 3.22453 14.4836 1.6086 17.2941L1.2357 17.1806C1.67375 10.8744 6.94371 5.87809 13.3594 5.87809C13.6372 5.87809 13.8625 5.65282 13.8625 5.37497V2.12852L22.4258 8.18747L13.8625 14.2464ZM14.0625 11C14.0625 10.6117 13.7477 10.2968 13.3594 10.2968C11.8503 10.2968 10.3633 10.5419 8.93967 11.0252C5.87353 12.0662 3.32223 14.1382 1.67011 16.8013C1.58967 16.931 1.51136 17.062 1.43522 17.1945C1.44592 17.0404 1.45955 16.8872 1.47605 16.7349C2.12417 10.7513 7.20626 6.07809 13.3594 6.07809C13.7477 6.07809 14.0625 5.76328 14.0625 5.37497V2.51503L22.0795 8.18747L14.0625 13.8599V11Z" fill="#D90002"/>
</svg>
