<svg width="54" height="55" viewBox="0 0 54 55" fill="none" xmlns="http://www.w3.org/2000/svg">
<path d="M36.1024 18.0007L18.5928 35.6371C18.5016 35.729 18.3779 35.7806 18.2489 35.7806C18.1199 35.7806 17.9961 35.729 17.9049 35.6371C17.8137 35.5453 17.7624 35.4206 17.7624 35.2907C17.7624 35.1608 17.8136 35.0361 17.9048 34.9442L35.4144 17.3078C35.4596 17.2623 35.5132 17.2262 35.5722 17.2016C35.6313 17.177 35.6945 17.1643 35.7584 17.1643C35.8223 17.1643 35.8855 17.177 35.9445 17.2016C36.0036 17.2262 36.0572 17.2623 36.1024 17.3078C36.1475 17.3533 36.1834 17.4073 36.2078 17.4667C36.2323 17.5262 36.2449 17.5899 36.2449 17.6542C36.2449 17.7185 36.2323 17.7823 36.2079 17.8417C36.1834 17.9012 36.1476 17.9552 36.1024 18.0007ZM17.9294 22.8752C17.2912 22.2339 16.8936 21.3896 16.8043 20.4861C16.715 19.5827 16.9396 18.6759 17.4397 17.9206C17.9398 17.1652 18.6845 16.6079 19.5469 16.3436C20.4093 16.0794 21.336 16.1246 22.169 16.4716C23.0021 16.8185 23.6898 17.4457 24.1151 18.2462C24.5404 19.0468 24.6769 19.9711 24.5014 20.8616C24.3258 21.7522 23.849 22.5539 23.1523 23.13C22.4556 23.7061 21.5821 24.021 20.6807 24.0211C20.1697 24.0227 19.6634 23.9222 19.1911 23.7255C18.7189 23.5288 18.29 23.2399 17.9294 22.8752ZM17.7625 20.1038C17.7626 20.7832 17.9967 21.4416 18.4247 21.9667C18.8527 22.4918 19.4483 22.8512 20.1099 22.9837C20.7715 23.1162 21.4582 23.0135 22.0531 22.6932C22.648 22.3729 23.1142 21.8548 23.3724 21.2271C23.6305 20.5994 23.6646 19.9009 23.4689 19.2507C23.2732 18.6005 22.8597 18.0388 22.2989 17.6612C21.7381 17.2836 21.0647 17.1136 20.3934 17.18C19.7221 17.2464 19.0944 17.5452 18.6173 18.0254C18.3454 18.2977 18.1299 18.6216 17.9832 18.9784C17.8364 19.3351 17.7614 19.7177 17.7625 20.1038ZM37.2176 32.8412C37.2176 33.7479 36.9055 34.6266 36.3344 35.3276C35.7633 36.0285 34.9687 36.5083 34.0857 36.6852C33.2028 36.8621 32.2863 36.7252 31.4924 36.2978C30.6985 35.8704 30.0763 35.1789 29.7317 34.3412C29.3872 33.5035 29.3417 32.5714 29.603 31.7037C29.8643 30.836 30.4163 30.0864 31.1647 29.5827C31.9132 29.0789 32.812 28.8521 33.7079 28.941C34.6037 29.0298 35.4413 29.4288 36.0779 30.07C36.4403 30.433 36.7277 30.8649 36.9233 31.3406C37.1189 31.8163 37.219 32.3263 37.2176 32.8412ZM36.2448 32.8412C36.2449 32.1612 36.0108 31.5021 35.5825 30.9764C35.1542 30.4507 34.5582 30.0909 33.896 29.9582C33.2338 29.8255 32.5464 29.9282 31.951 30.2487C31.3555 30.5692 30.8889 31.0878 30.6305 31.7161C30.3721 32.3444 30.3379 33.0435 30.5339 33.6942C30.7299 34.345 31.1438 34.9072 31.7052 35.285C32.2665 35.6629 32.9406 35.833 33.6125 35.7663C34.2844 35.6997 34.9126 35.4005 35.39 34.9196C35.6618 34.6473 35.8774 34.3234 36.0241 33.9667C36.1708 33.6099 36.2458 33.2274 36.2448 32.8412Z" fill="#D90002"/>
<path d="M53.5 27.2039C53.5 41.9555 41.632 53.9077 27 53.9077C12.368 53.9077 0.5 41.9555 0.5 27.2039C0.5 12.4522 12.368 0.5 27 0.5C41.632 0.5 53.5 12.4522 53.5 27.2039Z" stroke="#171723"/>
<path d="M49.1221 27.2045C49.1221 39.5198 39.2144 49.4969 27.0005 49.4969C14.7866 49.4969 4.87891 39.5198 4.87891 27.2045C4.87891 14.8892 14.7866 4.91211 27.0005 4.91211C39.2144 4.91211 49.1221 14.8892 49.1221 27.2045Z" stroke="#171723"/>
</svg>
