<svg width="50" height="50" viewBox="0 0 50 50" fill="none" xmlns="http://www.w3.org/2000/svg">
<path d="M33.515 34.1971L43.8113 28.2825C44.6075 27.8316 45.5491 27.712 46.4327 27.9496C47.3163 28.1871 48.071 28.7628 48.5337 29.5522C48.9948 30.3523 49.12 31.3026 48.8821 32.1949C48.6441 33.0872 48.0624 33.8489 47.2641 34.3133L32.2376 42.8755C31.5304 43.2794 30.7295 43.4904 29.9151 43.4871H18.5272C17.6879 43.49 16.8647 43.7172 16.1427 44.1452L13.3867 45.8096" stroke="#D90002" stroke-width="0.685688" stroke-linecap="round" stroke-linejoin="round"/>
<path d="M21.1302 35.7468H30.0331C30.9564 35.7447 31.8413 35.377 32.4942 34.7242C33.1471 34.0713 33.5148 33.1864 33.5169 32.263V32.263C33.5148 31.3397 33.1471 30.4548 32.4942 29.8019C31.8413 29.149 30.9564 28.7813 30.0331 28.7793H17.4143C16.5626 28.7781 15.727 29.0111 14.9989 29.4528L7.19531 34.1984" stroke="#D90002" stroke-width="0.685688" stroke-linecap="round" stroke-linejoin="round"/>
<path d="M1 34.9729L4.87082 32.6504L14.153 47.3595L11.8383 48.9078" stroke="#D90002" stroke-width="0.685688" stroke-linejoin="round"/>
<path d="M26.5501 0.908203L6.42188 14.8431V19.4881H11.0669V17.1656L26.5501 6.32734L42.0334 17.1656V20.2623H46.6784V14.8431L26.5501 0.908203Z" stroke="#171723" stroke-width="0.685688" stroke-linecap="round" stroke-linejoin="round"/>
<path d="M34.2891 2.45653V0.908203H42.0307V7.87567" stroke="#171723" stroke-width="0.685688" stroke-linecap="square" stroke-linejoin="round"/>
<path d="M11.0664 31.1017V22.5859" stroke="#171723" stroke-width="0.685688" stroke-linecap="square" stroke-linejoin="round"/>
<path d="M42.0273 23.3574V28.7766" stroke="#171723" stroke-width="0.685688" stroke-linecap="square" stroke-linejoin="round"/>
</svg>
