<svg width="45" height="46" viewBox="0 0 45 46" fill="none" xmlns="http://www.w3.org/2000/svg">
<g clip-path="url(#clip0)">
<path d="M41.0299 17.5317H3.73037C3.21564 17.5317 2.79785 17.9495 2.79785 18.4643V44.574C2.79785 45.0886 3.21564 45.5064 3.73037 45.5064H41.03C41.5447 45.5064 41.9625 45.0886 41.9625 44.5739V18.4643C41.9624 17.9495 41.5446 17.5317 41.0299 17.5317ZM40.0975 43.6415H4.6628V19.3967H40.0974L40.0975 43.6415Z" fill="#171723" stroke="#F2F2F2"/>
<path d="M42.8947 10.072H1.86514C1.3504 10.072 0.932617 10.4898 0.932617 11.0045V18.4644C0.932617 18.9792 1.3504 19.3969 1.86514 19.3969H42.8946C43.4094 19.3969 43.8272 18.9792 43.8272 18.4644V11.0045C43.8272 10.4897 43.4095 10.072 42.8947 10.072ZM41.9622 17.5319H2.79765V11.937H41.9622V17.5319Z" fill="#171723" stroke="#F2F2F2"/>
<path d="M22.3798 10.072C21.8651 10.072 21.4473 10.4898 21.4473 11.0045V44.5742C21.4473 45.0889 21.8651 45.5067 22.3798 45.5067C22.8945 45.5067 23.3123 45.0889 23.3123 44.5742V11.0045C23.3123 10.4897 22.8945 10.072 22.3798 10.072Z" fill="#D90002" stroke="#F2F2F2"/>
<path d="M23.3329 10.7841C22.3743 6.28765 16.6563 1.46298 12.8461 0.817725C12.6112 0.771042 12.3706 0.746826 12.1226 0.746826C10.0655 0.746826 8.39258 2.41971 8.39258 4.47681C8.39258 5.3366 8.69287 6.17584 9.23741 6.84164C9.24484 6.84723 9.25044 6.85659 9.25603 6.86402C12.0255 10.4019 21.2442 11.7578 22.2922 11.9013C22.3352 11.9069 22.378 11.9106 22.4191 11.9106C22.6783 11.9106 22.9245 11.8043 23.1035 11.6123C23.3105 11.3902 23.3964 11.0807 23.3329 10.7841ZM10.6995 5.67972C10.6827 5.65551 10.6641 5.63497 10.6454 5.61442C10.3918 5.28808 10.2575 4.89451 10.2575 4.47681C10.2575 3.44735 11.0949 2.61186 12.1225 2.61186C12.2456 2.61186 12.3668 2.62489 12.5104 2.65103C15.306 3.12476 19.5264 6.50778 21.0426 9.80879C17.7958 9.21013 12.3146 7.81323 10.6995 5.67972Z" fill="#D90002" stroke="#F2F2F2"/>
<path d="M33.6089 0.746826C33.3608 0.746826 33.1203 0.771042 32.9113 0.81213C29.077 1.46298 23.3589 6.28765 22.4004 10.7841C22.337 11.0807 22.4227 11.3902 22.6298 11.6122C22.807 11.8024 23.055 11.9106 23.3123 11.9106C23.3533 11.9106 23.3963 11.9068 23.4373 11.9031C24.4853 11.7595 33.704 10.4037 36.4735 6.86585C36.4809 6.85842 36.4865 6.84907 36.494 6.84164C37.0386 6.17575 37.3388 5.33651 37.3388 4.47681C37.3388 2.41971 35.666 0.746826 33.6089 0.746826ZM35.0859 5.61626C35.0673 5.6368 35.0486 5.65726 35.0318 5.68156C33.4186 7.8114 27.9374 9.21197 24.6886 9.81062C26.2067 6.50585 30.429 3.12467 33.247 2.64727C33.3645 2.62489 33.4858 2.61186 33.6089 2.61186C34.6365 2.61186 35.4738 3.44735 35.4738 4.47681C35.4739 4.89451 35.3396 5.28616 35.0859 5.61626Z" fill="#D90002" stroke="#F2F2F2"/>
</g>
<defs>
<clipPath id="clip0">
<rect width="44.7595" height="44.7595" fill="white" transform="translate(0 0.746826)"/>
</clipPath>
</defs>
</svg>
