<svg width="50" height="50" viewBox="0 0 50 50" fill="none" xmlns="http://www.w3.org/2000/svg">
<path d="M25.0865 48.2809C24.9711 48.2809 24.8575 48.2514 24.7568 48.1951C13.0115 41.6201 6 31.0512 6 19.9154V9.31064C5.99993 9.21754 6.0191 9.12543 6.0563 9.04008C6.09351 8.95474 6.14795 8.878 6.21622 8.81469C6.28431 8.75095 6.36501 8.7022 6.45311 8.6716C6.54122 8.64099 6.63476 8.6292 6.7277 8.63699C14.5655 9.2451 20.3912 6.82821 24.5446 1.25523C24.6103 1.17542 24.6928 1.11115 24.7863 1.06702C24.8797 1.02289 24.9818 1 25.0851 1C25.1885 1 25.2906 1.02289 25.384 1.06702C25.4775 1.11115 25.56 1.17542 25.6257 1.25523C29.7824 6.82821 35.6162 9.24375 43.4453 8.63699C43.5383 8.62981 43.6318 8.64196 43.7198 8.67269C43.8079 8.70341 43.8887 8.75204 43.957 8.81551C44.0254 8.87899 44.0799 8.95593 44.1171 9.04149C44.1542 9.12705 44.1733 9.21938 44.173 9.31267V19.9154C44.1192 25.5845 42.3889 31.111 39.2 35.7985C35.6448 40.9575 30.9222 45.2046 25.4162 48.1944C25.3155 48.251 25.202 48.2807 25.0865 48.2809ZM7.35135 10.0329V19.9154C7.35135 30.4485 13.973 40.4856 25.0865 46.8289C30.2679 43.9594 34.7136 39.9277 38.0743 35.0505C41.1158 30.5845 42.7676 25.3184 42.8216 19.9154V10.0329C35.1865 10.4586 29.3642 8.07348 25.0865 2.76267C20.8101 8.07213 14.9939 10.4586 7.35135 10.0329Z" fill="#171723" stroke="white" stroke-width="0.56"/>
<path d="M25.0852 43.5619C24.9569 43.5619 24.8313 43.5253 24.723 43.4565C15.3987 37.5281 10.0527 28.9477 10.0527 19.916V13.4166C10.0525 13.2437 10.1185 13.0772 10.2373 12.9515C10.3561 12.8258 10.5186 12.7505 10.6912 12.741C15.8474 12.5776 20.782 10.6072 24.6325 7.17408C24.7566 7.06203 24.9179 7 25.0852 7C25.2524 7 25.4137 7.06203 25.5379 7.17408C29.3878 10.6067 34.3217 12.5771 39.4771 12.741C39.6497 12.7505 39.8122 12.8258 39.931 12.9515C40.0498 13.0772 40.1158 13.2437 40.1156 13.4166V19.9146C40.0609 24.7852 38.5664 29.5308 35.8203 33.5538C33.084 37.536 29.5521 40.9078 25.4473 43.4565C25.3391 43.5253 25.2134 43.5619 25.0852 43.5619ZM11.4041 14.0511V19.916C11.4041 28.3619 16.3838 36.418 25.0852 42.0829C28.8804 39.6696 32.1495 36.5152 34.6967 32.8085C37.2952 29.007 38.7112 24.5218 38.7663 19.9173V14.0525C33.7323 13.7601 28.9302 11.8376 25.0852 8.57543C21.24 11.8371 16.4379 13.7591 11.4041 14.0511Z" fill="#171723" stroke="white" stroke-width="0.56"/>
<path d="M22.2322 29.4381C22.053 29.4381 21.8812 29.3669 21.7545 29.2402L17.8518 25.3375C17.7287 25.21 17.6606 25.0393 17.6621 24.8622C17.6637 24.685 17.7347 24.5156 17.86 24.3903C17.9853 24.265 18.1548 24.1939 18.3319 24.1924C18.5091 24.1909 18.6798 24.259 18.8072 24.382L22.2322 27.8084L31.3653 18.6739C31.4924 18.5472 31.6647 18.4762 31.8442 18.4766C32.0237 18.4769 32.1957 18.5485 32.3224 18.6756C32.4491 18.8028 32.5201 18.975 32.5198 19.1545C32.5194 19.334 32.4478 19.506 32.3207 19.6327L22.7099 29.2402C22.5832 29.3669 22.4114 29.4381 22.2322 29.4381Z" fill="#D90002" stroke="white" stroke-width="0.56"/>
</svg>
