<svg width="63" height="58" viewBox="0 0 63 58" fill="none" xmlns="http://www.w3.org/2000/svg">
<path d="M55.2971 43.9996H8.08037C6.9028 43.9994 5.77353 43.5315 4.94094 42.6987C4.10836 41.866 3.64062 40.7366 3.64063 39.559V9.02852C3.64062 7.85094 4.10836 6.72158 4.94094 5.88883C5.77353 5.05608 6.9028 4.58812 8.08037 4.58789H55.2971C56.4748 4.58789 57.6043 5.05574 58.4371 5.88852C59.2699 6.7213 59.7377 7.85079 59.7377 9.02852V39.559C59.7377 40.7367 59.2699 41.8662 58.4371 42.699C57.6043 43.5318 56.4748 43.9996 55.2971 43.9996V43.9996Z" stroke="black" stroke-miterlimit="10" stroke-linecap="round" stroke-linejoin="round"/>
<path d="M59.7377 36.6172C59.7377 36.6172 59.8847 40.8653 58.3815 42.5934C56.8782 44.3216 57.7497 43.9969 55.2971 43.9969H8.08037C5.62863 43.9969 4.43687 42.3764 4.43687 41.8584L3.64062 36.6172" stroke="black" stroke-width="0.919" stroke-miterlimit="10" stroke-linecap="round" stroke-linejoin="round"/>
<path d="M55.2971 43.9996H8.08037C6.9028 43.9994 5.77353 43.5315 4.94094 42.6987C4.10836 41.866 3.64062 40.7366 3.64063 39.559V9.02852C3.64062 7.85094 4.10836 6.72158 4.94094 5.88883C5.77353 5.05608 6.9028 4.58812 8.08037 4.58789H55.2971C56.4748 4.58789 57.6043 5.05574 58.4371 5.88852C59.2699 6.7213 59.7377 7.85079 59.7377 9.02852V39.559C59.7377 40.7367 59.2699 41.8662 58.4371 42.699C57.6043 43.5318 56.4748 43.9996 55.2971 43.9996V43.9996Z" stroke="#464646" stroke-miterlimit="10" stroke-linecap="round" stroke-linejoin="round"/>
<path d="M6.3125 37.4297H57.0625" stroke="#464646" stroke-miterlimit="10" stroke-linecap="round" stroke-linejoin="round"/>
<path d="M37.788 48.3379C37.788 52.677 45.523 54.4996 45.523 54.4996H17.8555C17.8555 54.4996 25.5905 52.677 25.5905 48.3379" stroke="#464646" stroke-miterlimit="10" stroke-linecap="round" stroke-linejoin="round"/>
<path d="M27.3676 22.2973L21.1037 30.2806H17.2656L20.7276 25.6749H21.8714V24.1396L24.6886 20.4013C24.0521 19.5009 23.7365 18.4128 23.7924 17.3116C23.8483 16.2104 24.2725 15.1599 24.9968 14.3286C25.7212 13.4973 26.7038 12.9334 27.787 12.7273C28.8703 12.5213 29.9913 12.685 30.9703 13.1923C31.9493 13.6996 32.7296 14.521 33.1859 15.5248C33.6422 16.5286 33.7481 17.6565 33.4867 18.7277C33.2253 19.7989 32.6116 20.7512 31.7442 21.432C30.8768 22.1127 29.8058 22.4823 28.7032 22.4816C28.2519 22.4783 27.8029 22.4164 27.3676 22.2973Z" stroke="#D90002" stroke-linecap="round" stroke-linejoin="round"/>
<path d="M28.0429 22.4357L27.8203 25.1454L29.3479 26.673L30.9829 25.0456L36.4561 30.2808L44.8999 21.8369L39.5266 16.4636L41.2921 14.7287L39.7645 13.2012L32.618 13.7846" stroke="#D90002" stroke-linecap="square" stroke-linejoin="round"/>
</svg>
