<svg width="49" height="48" viewBox="0 0 49 48" fill="none" xmlns="http://www.w3.org/2000/svg">
<path d="M47.8494 17.48V22.7695H44.8268V45.4385C44.8268 45.8393 44.6676 46.2237 44.3842 46.5071C44.1007 46.7905 43.7164 46.9498 43.3155 46.9498H5.53381C5.13299 46.9498 4.74862 46.7905 4.4652 46.5071C4.18178 46.2237 4.02254 45.8393 4.02254 45.4385V22.7695H1V17.48L23.5255 0.765373C23.7857 0.572729 24.1009 0.46875 24.4247 0.46875C24.7484 0.46875 25.0637 0.572729 25.3239 0.765373L47.8494 17.48Z" stroke="#464646" stroke-width="0.848101" stroke-linecap="round" stroke-linejoin="round"/>
<circle cx="24.4226" cy="26.9168" r="10.1548" stroke="#D90002" stroke-width="0.848101"/>
<path d="M28.287 31.45L23.668 27.5076V20.8711H24.6193V27.1016L28.9574 30.8334L28.287 31.45Z" fill="#D90002"/>
</svg>
