<svg width="58" height="59" fill="none" xmlns="http://www.w3.org/2000/svg"><circle cx="29" cy="29.595" r="29" fill="#4298D4" fill-opacity=".2"/><path d="M28.566 19.431a.489.489 0 01.93 0l2.28 7.016a.489.489 0 00.465.338h7.377a.49.49 0 01.288.885l-5.969 4.336a.49.49 0 00-.177.547l2.28 7.016a.489.489 0 01-.753.546l-5.968-4.336a.489.489 0 00-.575 0l-5.968 4.336a.489.489 0 01-.753-.546l2.28-7.016a.489.489 0 00-.178-.547l-5.968-4.336a.489.489 0 01.288-.885h7.377a.49.49 0 00.465-.338l2.28-7.016z" fill="#fff" fill-opacity=".7"/></svg>