<svg width="76" height="74" viewBox="0 0 76 74" fill="none" xmlns="http://www.w3.org/2000/svg">
<g opacity="0.25">
<path fill-rule="evenodd" clip-rule="evenodd" d="M1.43945 44.3462C11.1274 78.9677 56.5076 80.8543 75.3736 58.1132C70.6206 51.1112 64.2074 45.3952 56.7069 41.4759C49.2064 37.5566 40.8519 35.5559 32.3897 35.6525C21.4529 35.524 10.7097 38.5416 1.43945 44.3462Z" fill="#00657C"/>
<path fill-rule="evenodd" clip-rule="evenodd" d="M7.42941 14.4409C4.24014 18.6411 2.04413 23.5094 1.00645 28.6801C-0.0312234 33.8509 0.116479 39.1895 1.43826 44.295C23.0066 44.6264 48.9855 33.6638 50.6682 3.27433C46.051 1.19956 41.0452 0.130628 35.9833 0.138492C30.4331 0.101152 24.9527 1.37749 19.9901 3.86324C15.0275 6.34898 10.7233 9.97361 7.42941 14.4409Z" fill="#00657C"/>
</g>
</svg>
