<svg width="18" height="19" viewBox="0 0 18 19" fill="none" xmlns="http://www.w3.org/2000/svg">
<path fill-rule="evenodd" clip-rule="evenodd" d="M17.0066 0.90625H0.993428C0.444716 0.90625 0 1.35087 0 1.89947V17.9092C0 18.4577 0.444716 18.9025 0.993428 18.9025H9.6144V11.9334H7.26862V9.21737H9.6144V7.21442C9.6144 4.89004 11.0343 3.62434 13.1083 3.62434C14.1018 3.62434 14.9556 3.69824 15.2044 3.73128V6.16045L13.766 6.16112C12.6381 6.16112 12.4197 6.69697 12.4197 7.48332V9.21737H15.1098L14.7595 11.9334H12.4197V18.9025H17.0066C17.5552 18.9025 18 18.4577 18 17.9092V1.89947C18 1.35087 17.5552 0.90625 17.0066 0.90625Z" fill="#9595A2"/>
</svg>
