<svg width="18" height="19" viewBox="0 0 18 19" fill="none" xmlns="http://www.w3.org/2000/svg">
<path fill-rule="evenodd" clip-rule="evenodd" d="M5.28931 0.960489C6.24926 0.916625 6.55575 0.90625 9.00002 0.90625C11.4443 0.90625 11.7507 0.916625 12.7107 0.960489C13.6686 1.00424 14.3229 1.15662 14.8953 1.37944C15.4872 1.60974 15.9891 1.91793 16.4895 2.41899C16.9898 2.92009 17.2975 3.42273 17.5275 4.01542C17.75 4.58872 17.9021 5.24391 17.9458 6.20325C17.9896 7.16459 18 7.47152 18 9.91934C18 12.3671 17.9896 12.6741 17.9458 13.6354C17.9021 14.5947 17.75 15.2499 17.5275 15.8232C17.2975 16.4159 16.9898 16.9186 16.4895 17.4197C15.9891 17.9207 15.4872 18.2289 14.8953 18.4592C14.3229 18.682 13.6686 18.8344 12.7107 18.8782C11.7507 18.922 11.4443 18.9324 9.00002 18.9324C6.55575 18.9324 6.24926 18.922 5.28931 18.8782C4.33137 18.8344 3.67712 18.682 3.10466 18.4592C2.51283 18.2289 2.01092 17.9207 1.51055 17.4197C1.01021 16.9186 0.702472 16.4159 0.472506 15.8232C0.250007 15.2499 0.0978523 14.5947 0.0541599 13.6354C0.0103604 12.6741 0 12.3671 0 9.91934C0 7.47152 0.0103604 7.16459 0.0541599 6.20325C0.0978523 5.24391 0.250007 4.58872 0.472506 4.01542C0.702472 3.42273 1.01021 2.92009 1.51055 2.41899C2.01092 1.91793 2.51283 1.60974 3.10466 1.37944C3.67712 1.15662 4.33137 1.00424 5.28931 0.960489ZM13.5 6.90499C14.3284 6.90499 15 6.23356 15 5.4053C15 4.57705 14.3284 3.90562 13.5 3.90562C12.6716 3.90562 12 4.57705 12 5.4053C12 6.23356 12.6716 6.90499 13.5 6.90499ZM9 12.9037C10.6569 12.9037 12 11.5609 12 9.90436C12 8.24785 10.6569 6.90499 9 6.90499C7.34315 6.90499 6 8.24785 6 9.90436C6 11.5609 7.34315 12.9037 9 12.9037Z" fill="#9595A2"/>
</svg>
