<svg width="31" height="22" viewBox="0 0 31 22" fill="none" xmlns="http://www.w3.org/2000/svg">
<path d="M30.0026 17.3635H6.49609V21.6492H30.0026V17.3635Z" fill="black"/>
<path fill-rule="evenodd" clip-rule="evenodd" d="M29.8026 17.5635H6.69609V21.4492H29.8026V17.5635ZM30.0026 17.3635V21.6492H6.49609V17.3635H30.0026Z" fill="black"/>
<path d="M30.0026 8.92197H6.49609V13.2077H30.0026V8.92197Z" fill="black"/>
<path fill-rule="evenodd" clip-rule="evenodd" d="M29.8026 9.12197H6.69609V13.0077H29.8026V9.12197ZM30.0026 8.92197V13.2077H6.49609V8.92197H30.0026Z" fill="black"/>
<path d="M30.0026 0.220703H6.49609V4.50642H30.0026V0.220703Z" fill="black"/>
<path fill-rule="evenodd" clip-rule="evenodd" d="M29.8026 0.420703H6.69609V4.30642H29.8026V0.420703ZM30.0026 0.220703V4.50642H6.49609V0.220703H30.0026Z" fill="black"/>
<path d="M4.28571 17.4936H0V21.7793H4.28571V17.4936Z" fill="black"/>
<path fill-rule="evenodd" clip-rule="evenodd" d="M4.08571 17.6936H0.2V21.5793H4.08571V17.6936ZM4.28571 17.4936V21.7793H0V17.4936H4.28571Z" fill="black"/>
<path d="M4.28571 8.92196H0V13.2077H4.28571V8.92196Z" fill="black"/>
<path fill-rule="evenodd" clip-rule="evenodd" d="M4.08571 9.12196H0.2V13.0077H4.08571V9.12196ZM4.28571 8.92196V13.2077H0V8.92196H4.28571Z" fill="black"/>
<path d="M4.28571 0.220703H0V4.50642H4.28571V0.220703Z" fill="black"/>
<path fill-rule="evenodd" clip-rule="evenodd" d="M4.08571 0.420703H0.2V4.30642H4.08571V0.420703ZM4.28571 0.220703V4.50642H0V0.220703H4.28571Z" fill="black"/>
</svg>
