<svg width="16" height="20" viewBox="0 0 16 20" fill="none" xmlns="http://www.w3.org/2000/svg">
<path d="M13.6658 7.70397V5.83297C13.6658 3.16797 11.2731 0.999636 8.33248 0.999636C5.39181 0.999636 2.99915 3.16797 2.99915 5.83297V7.70397C1.86548 7.8993 0.999147 8.8873 0.999147 10.0763V16.5903C0.999147 17.9186 2.08015 18.9996 3.40881 18.9996H13.2561C14.5848 18.9996 15.6658 17.9186 15.6658 16.59V10.076C15.6658 8.8873 14.7995 7.8993 13.6658 7.70397ZM3.66581 5.83297C3.66581 3.5353 5.75915 1.6663 8.33248 1.6663C10.9058 1.6663 12.9991 3.5353 12.9991 5.83297V7.6663H3.66581V5.83297ZM14.9991 16.59C14.9991 17.551 14.2171 18.333 13.2561 18.333H3.40881C2.44781 18.333 1.66581 17.551 1.66581 16.59V10.076C1.66581 9.11497 2.44781 8.33297 3.40881 8.33297H13.2561C14.2171 8.33297 14.9991 9.11497 14.9991 10.076V16.59Z" fill="#171723"/>
<path fill-rule="evenodd" clip-rule="evenodd" d="M13.9931 7.44271C15.1445 7.76505 15.9931 8.82129 15.9931 10.076V16.59C15.9931 18.0994 14.7656 19.3269 13.2561 19.3269H3.40881C1.89943 19.3269 0.671875 18.0994 0.671875 16.5903V10.0763C0.671875 8.82134 1.52039 7.76506 2.67188 7.44271V5.83297C2.67188 2.95765 5.24213 0.672363 8.33248 0.672363C11.4228 0.672363 13.9931 2.95765 13.9931 5.83297V7.44271ZM8.33248 1.99357C5.90403 1.99357 3.99309 3.74994 3.99309 5.83297V7.33903H12.6719V5.83297C12.6719 3.74994 10.7609 1.99357 8.33248 1.99357ZM13.2561 18.0057C14.0364 18.0057 14.6719 17.3702 14.6719 16.59V10.076C14.6719 9.29572 14.0364 8.66024 13.2561 8.66024H3.40881C2.62856 8.66024 1.99309 9.29572 1.99309 10.076V16.59C1.99309 17.3702 2.62856 18.0057 3.40881 18.0057H13.2561ZM13.6658 5.83297V7.70397C14.7995 7.8993 15.6658 8.8873 15.6658 10.076V16.59C15.6658 17.9186 14.5848 18.9996 13.2561 18.9996H3.40881C2.08015 18.9996 0.999147 17.9186 0.999147 16.5903V10.0763C0.999147 8.8873 1.86548 7.8993 2.99915 7.70397V5.83297C2.99915 3.16797 5.39181 0.999636 8.33248 0.999636C11.2731 0.999636 13.6658 3.16797 13.6658 5.83297ZM8.33248 1.6663C5.75915 1.6663 3.66581 3.5353 3.66581 5.83297V7.6663H12.9991V5.83297C12.9991 3.5353 10.9058 1.6663 8.33248 1.6663ZM13.2561 18.333C14.2171 18.333 14.9991 17.551 14.9991 16.59V10.076C14.9991 9.11497 14.2171 8.33297 13.2561 8.33297H3.40881C2.44781 8.33297 1.66581 9.11497 1.66581 10.076V16.59C1.66581 17.551 2.44781 18.333 3.40881 18.333H13.2561Z" fill="#171723"/>
<path d="M8.32857 10.3332C7.59324 10.3332 6.99524 10.9312 6.99524 11.6665V13.6665C6.99524 14.4018 7.59324 14.9998 8.32857 14.9998C9.06391 14.9998 9.66191 14.4018 9.66191 13.6665V11.6665C9.66191 10.9312 9.06391 10.3332 8.32857 10.3332ZM8.99524 13.6665C8.99524 14.0342 8.69624 14.3332 8.32857 14.3332C7.96091 14.3332 7.66191 14.0342 7.66191 13.6665V11.6665C7.66191 11.2988 7.96091 10.9998 8.32857 10.9998C8.69624 10.9998 8.99524 11.2988 8.99524 11.6665V13.6665Z" fill="#171723"/>
<path fill-rule="evenodd" clip-rule="evenodd" d="M6.66797 11.6665C6.66797 10.7504 7.41249 10.0059 8.32857 10.0059C9.24466 10.0059 9.98918 10.7504 9.98918 11.6665V13.6665C9.98918 14.5826 9.24466 15.3271 8.32857 15.3271C7.41249 15.3271 6.66797 14.5826 6.66797 13.6665V11.6665ZM8.32857 14.0059C8.51549 14.0059 8.66797 13.8534 8.66797 13.6665V11.6665C8.66797 11.4796 8.51549 11.3271 8.32857 11.3271C8.14166 11.3271 7.98918 11.4796 7.98918 11.6665V13.6665C7.98918 13.8534 8.14166 14.0059 8.32857 14.0059ZM6.99524 11.6665C6.99524 10.9312 7.59324 10.3332 8.32857 10.3332C9.06391 10.3332 9.66191 10.9312 9.66191 11.6665V13.6665C9.66191 14.4018 9.06391 14.9998 8.32857 14.9998C7.59324 14.9998 6.99524 14.4018 6.99524 13.6665V11.6665ZM8.32857 14.3332C8.69624 14.3332 8.99524 14.0342 8.99524 13.6665V11.6665C8.99524 11.2988 8.69624 10.9998 8.32857 10.9998C7.96091 10.9998 7.66191 11.2988 7.66191 11.6665V13.6665C7.66191 14.0342 7.96091 14.3332 8.32857 14.3332Z" fill="#171723"/>
</svg>
