<svg width="22" height="14" viewBox="0 0 22 14" fill="none" xmlns="http://www.w3.org/2000/svg">
<path d="M18.9341 9.17052C19.6639 9.91433 20.4341 10.6141 21.0887 11.433C21.3778 11.7968 21.6515 12.1723 21.8609 12.5946C22.1577 13.1949 21.8889 13.8555 21.3733 13.8913L18.1683 13.8898C17.3417 13.9614 16.6822 13.614 16.1278 13.024C15.684 12.5521 15.2731 12.0499 14.8464 11.5622C14.6715 11.3628 14.4884 11.1752 14.2697 11.0269C13.8321 10.7304 13.4523 10.8212 13.2023 11.2976C12.9477 11.7821 12.8899 12.3186 12.8649 12.8586C12.8306 13.6465 12.6024 13.8537 11.8443 13.8897C10.2242 13.9695 8.6866 13.7136 7.25822 12.8604C5.99891 12.1082 5.02236 11.0463 4.17239 9.84415C2.51748 7.50329 1.25014 4.93108 0.111107 2.2868C-0.14528 1.69104 0.042222 1.37124 0.671878 1.35992C1.71745 1.33871 2.76288 1.34022 3.80968 1.35841C4.23463 1.3649 4.51595 1.61935 4.68003 2.03846C5.24572 3.49054 5.9379 4.87207 6.80674 6.15263C7.03812 6.49356 7.27405 6.83449 7.61002 7.07445C7.9817 7.34015 8.26468 7.25209 8.43954 6.81985C8.55049 6.54578 8.59906 6.25058 8.62407 5.95704C8.70691 4.94715 8.71782 3.939 8.57254 2.93266C8.48334 2.30461 8.14448 1.89803 7.54417 1.77918C7.23783 1.71858 7.28344 1.59958 7.43177 1.41704C7.68938 1.10222 7.93168 0.90625 8.41467 0.90625H12.0368C12.6071 1.02374 12.7337 1.29117 12.8118 1.89018L12.8149 6.09053C12.8087 6.32242 12.9258 7.01054 13.3259 7.16403C13.6461 7.27329 13.8572 7.00586 14.0493 6.79389C14.9166 5.83298 15.5355 4.69738 16.0885 3.52148C16.3339 3.00442 16.5449 2.46745 16.7494 1.93093C16.9009 1.5328 17.1386 1.3369 17.5682 1.34558L21.0543 1.34882C21.1577 1.34882 21.2623 1.35041 21.3624 1.36829C21.9498 1.47281 22.1108 1.73662 21.9294 2.33547C21.6435 3.27503 21.0873 4.058 20.5434 4.8446C19.9621 5.6844 19.3403 6.49545 18.7638 7.34023C18.2341 8.11166 18.2761 8.5005 18.9341 9.17052Z" fill="#9595A2"/>
</svg>
