<svg width="26" height="19" viewBox="0 0 26 19" fill="none" xmlns="http://www.w3.org/2000/svg">
<path d="M25.6142 3.70566C25.3056 2.60589 24.4827 1.70608 23.3511 1.40614C21.2938 0.90625 13.0643 0.90625 13.0643 0.90625C13.0643 0.90625 4.83482 0.90625 2.88032 1.40614C1.74876 1.80606 0.822948 2.60589 0.514342 3.70566C0 5.80522 0 9.90436 0 9.90436C0 9.90436 0 14.1035 0.514342 16.1031C0.822948 17.2028 1.6459 18.1026 2.77745 18.4026C4.83482 18.9025 12.9614 18.9025 12.9614 18.9025C12.9614 18.9025 21.1909 18.9025 23.1454 18.4026C24.277 18.1026 25.0999 17.3028 25.4085 16.1031C25.9228 14.1035 25.9228 9.90436 25.9228 9.90436C25.9228 9.90436 26.2315 5.80522 25.6142 3.70566ZM10.3897 13.7036V6.10516L17.2819 9.90436L10.3897 13.7036Z" fill="#9595A2"/>
</svg>
