<svg width="70" height="70" viewBox="0 0 70 70" fill="none" xmlns="http://www.w3.org/2000/svg">
<g clip-path="url(#clip0)">
<path d="M46.993 62.7081C46.993 58.8044 50.0557 55.7415 53.9596 55.7415C57.8633 55.7415 60.9262 58.8045 60.9262 62.7083C60.9262 66.612 57.8633 69.6749 53.9596 69.6749C50.0557 69.6749 46.993 66.6119 46.993 62.7081ZM49.2596 62.7083C49.2596 65.221 51.4467 67.4083 53.9596 67.4083C56.4723 67.4083 58.6596 65.221 58.6596 62.7083C58.6596 60.1955 56.4725 58.0083 53.9596 58.0083C51.4467 58.0083 49.2596 60.1955 49.2596 62.7083Z" fill="#171723" stroke="#F2F2F2" stroke-width="0.65"/>
<path d="M62.0631 9.56285L62.0631 9.56282C62.5194 9.10643 63.1886 9.10638 63.6451 9.56282C64.1014 10.0193 64.1014 10.6886 63.6451 11.145L51.9786 22.8117C51.9049 22.8855 51.7679 22.9434 51.5717 22.9761C51.3829 23.0076 51.1895 23.0082 51.0418 23.0082C50.9921 23.0082 50.9382 23.0081 50.8834 23.0069L50.6882 22.8117L44.8548 16.9784C44.3984 16.5219 44.3984 15.8527 44.8548 15.3962L44.8549 15.3962C45.3112 14.9398 45.9804 14.9398 46.4368 15.3962L51.1035 20.0628L51.3333 20.2927L51.5631 20.0628L62.0631 9.56285Z" fill="#D90002" stroke="#F2F2F2" stroke-width="0.65"/>
<path d="M61.5837 38.5308L61.8066 38.5018L61.8581 38.2829L63.0213 33.3393C63.1555 32.9425 63.3433 32.6515 63.5596 32.4893C63.7613 32.3381 64.0137 32.2779 64.3556 32.3918C64.726 32.5152 65.0372 32.765 65.2192 33.0076C65.3108 33.1298 65.3566 33.2328 65.371 33.3C65.374 33.3139 65.3753 33.3241 65.3759 33.3313L65.3315 33.3756L65.3097 33.4629L63.8513 39.2963L63.8416 39.3351V39.3751C63.8416 39.561 63.7454 39.7742 63.5723 39.9473C63.3991 40.1205 63.186 40.2167 63 40.2167H62.9778L62.9559 40.2197L20.3725 46.053L19.8956 46.1183L20.1344 46.5362C21.3673 48.6936 23.8175 49.9084 26.25 49.9084H59.5C59.8636 49.9084 60.1414 50.0282 60.3275 50.2142C60.5136 50.4003 60.6334 50.6781 60.6334 51.0417C60.6334 51.4054 60.5136 51.6832 60.3275 51.8692C60.1414 52.0553 59.8636 52.1751 59.5 52.1751H25.9584C21.4436 52.1751 17.2065 48.782 16.3612 44.2736L16.3606 44.2708L9.36065 8.68739L9.30905 8.42512H9.04176H1.45838C1.09474 8.42512 0.816945 8.30531 0.630874 8.11924C0.444804 7.93317 0.325 7.65538 0.325 7.29174C0.325 6.92818 0.444796 6.65041 0.630857 6.46435C0.816918 6.27829 1.09469 6.1585 1.45824 6.1585H10.2082C10.4088 6.1585 10.7065 6.26706 10.9612 6.45805C11.2251 6.65594 11.3416 6.86334 11.3416 7.00012V7.03109L11.3475 7.0615L12.8058 14.6447L12.8565 14.9084H13.125H33.5418C33.9054 14.9084 34.1832 15.0282 34.3693 15.2142C34.5553 15.4003 34.6751 15.6781 34.6751 16.0417C34.6751 16.4054 34.5553 16.6832 34.3693 16.8692C34.1832 17.0553 33.9054 17.1751 33.5418 17.1751H13.7084H13.3119L13.3897 17.5639L18.6397 43.8139L18.6992 44.1116L19.0003 44.0724L61.5837 38.5308ZM65.3756 33.345C65.3755 33.3449 65.3755 33.3437 65.3761 33.3418C65.3759 33.3441 65.3756 33.3451 65.3756 33.345Z" fill="#171723" stroke="#F2F2F2" stroke-width="0.65"/>
<path d="M17.825 62.7081C17.825 58.8044 20.8877 55.7415 24.7916 55.7415C28.6955 55.7415 31.7582 58.8045 31.7582 62.7083C31.7582 66.612 28.6955 69.6749 24.7916 69.6749C20.8879 69.6749 17.825 66.6119 17.825 62.7081ZM20.0916 62.7083C20.0916 65.221 22.2787 67.4083 24.7916 67.4083C27.3045 67.4083 29.4916 65.221 29.4916 62.7083C29.4916 60.1955 27.3045 58.0083 24.7916 58.0083C22.2787 58.0083 20.0916 60.1955 20.0916 62.7083Z" fill="#171723" stroke="#F2F2F2" stroke-width="0.65"/>
<path d="M38.243 16.0416C38.243 7.47111 45.3891 0.325 53.9596 0.325C62.5301 0.325 69.6762 7.47111 69.6762 16.0416C69.6762 24.6121 62.5301 31.7582 53.9596 31.7582C45.3891 31.7582 38.243 24.6121 38.243 16.0416ZM40.5096 16.0416C40.5096 23.5127 46.4885 29.4916 53.9596 29.4916C61.4307 29.4916 67.4096 23.5129 67.4096 16.0416C67.4096 8.57051 61.4307 2.59162 53.9596 2.59162C46.4885 2.59162 40.5096 8.57051 40.5096 16.0416Z" fill="#D90002" stroke="#F2F2F2" stroke-width="0.65"/>
</g>
<defs>
<clipPath id="clip0">
<rect width="70" height="70" fill="white"/>
</clipPath>
</defs>
</svg>
