<svg width="72" height="72" viewBox="0 0 72 72" fill="none" xmlns="http://www.w3.org/2000/svg">
<path d="M71 26.4174V34.3206H66.4839V68.1916C66.4839 68.7905 66.2459 69.3648 65.8225 69.7883C65.399 70.2117 64.8247 70.4496 64.2258 70.4496H7.77419C7.17532 70.4496 6.601 70.2117 6.17753 69.7883C5.75406 69.3648 5.51613 68.7905 5.51613 68.1916V34.3206H1V26.4174L34.6564 1.4432C35.0453 1.15536 35.5162 1 36 1C36.4838 1 36.9547 1.15536 37.3436 1.4432L71 26.4174Z" stroke="#171723" stroke-width="1.2" stroke-linecap="round" stroke-linejoin="round"/>
<circle cx="36.0018" cy="40.5154" r="15.2064" stroke="#D90002" stroke-width="1.2"/>
<path d="M35.4672 41.1233V32.0841H35.6886V40.7935V41.0688L35.8973 41.2483L41.8678 46.3843L41.7539 46.4891L35.4672 41.1233Z" fill="#157152" stroke="#D90002" stroke-width="1.2"/>
</svg>
