<svg width="25" height="25" viewBox="0 0 25 25" fill="none" xmlns="http://www.w3.org/2000/svg">
<path d="M23.0469 15.2832V22.0703C23.0469 22.6088 22.6088 23.0469 22.0703 23.0469H2.92969C2.39121 23.0469 1.95312 22.6088 1.95312 22.0703V15.2832H0V22.0703C0 23.6857 1.31426 25 2.92969 25H22.0703C23.6857 25 25 23.6857 25 22.0703V15.2832H23.0469Z" fill="#9595A2"/>
<path d="M17.1936 11.5096L13.4826 15.2205V0H11.5295V15.2205L7.81855 11.5096L6.4375 12.8906L12.5061 18.9592L18.5746 12.8906L17.1936 11.5096Z" fill="#9595A2"/>
<path fill-rule="evenodd" clip-rule="evenodd" d="M7.81855 11.5096L6.4375 12.8906L12.5061 18.9592L18.5746 12.8906L17.1936 11.5096L13.4826 15.2205V0H11.5295V15.2205L7.81855 11.5096ZM11.8495 0.32V15.9931L7.81855 11.9621L6.89005 12.8906L12.5061 18.5066L18.1221 12.8906L17.1936 11.9621L13.1626 15.9931V0.32H11.8495ZM23.3669 15.6032V22.0703C23.3669 22.7855 22.7855 23.3669 22.0703 23.3669H2.92969C2.21448 23.3669 1.63313 22.7855 1.63313 22.0703V15.6032H0.32V22.0703C0.32 23.509 1.49099 24.68 2.92969 24.68H22.0703C23.509 24.68 24.68 23.509 24.68 22.0703V15.6032H23.3669ZM23.0469 22.0703C23.0469 22.6088 22.6088 23.0469 22.0703 23.0469H2.92969C2.39121 23.0469 1.95312 22.6088 1.95312 22.0703V15.2832H0V22.0703C0 23.6857 1.31426 25 2.92969 25H22.0703C23.6857 25 25 23.6857 25 22.0703V15.2832H23.0469V22.0703Z" fill="#9595A2"/>
</svg>
