<svg width="25" height="24" viewBox="0 0 25 24" fill="none" xmlns="http://www.w3.org/2000/svg">
<path d="M7.15518 0.137755H1.29093C0.854653 0.137755 0.5 0.491064 0.5 0.927879V6.79941C0.5 7.2365 0.854653 7.59034 1.29093 7.59034H7.15518C7.59387 7.59034 7.94718 7.2365 7.94718 6.79941V0.927879C7.94664 0.490526 7.59387 0.137755 7.15518 0.137755Z" fill="#636363"/>
<path fill-rule="evenodd" clip-rule="evenodd" d="M7.15518 0.643018H1.29093C1.13281 0.643018 1.00526 0.771007 1.00526 0.927879V6.79941C1.00526 6.95711 1.13337 7.08508 1.29093 7.08508H7.15518C7.31505 7.08508 7.44192 6.95722 7.44192 6.79941L7.44192 0.928501C7.44192 0.928407 7.44192 0.928594 7.44192 0.928501C7.44157 0.77028 7.31517 0.643018 7.15518 0.643018ZM7.94718 0.927879V6.79941C7.94718 7.2365 7.59387 7.59034 7.15518 7.59034H1.29093C0.854653 7.59034 0.5 7.2365 0.5 6.79941V0.927879C0.5 0.491064 0.854653 0.137755 1.29093 0.137755H7.15518C7.59387 0.137755 7.94664 0.490526 7.94718 0.927879Z" fill="#636363"/>
<path d="M7.15518 8.20496H1.29093C0.854653 8.20496 0.5 8.55827 0.5 8.99517V14.8681C0.5 15.3049 0.854653 15.6587 1.29093 15.6587H7.15518C7.59387 15.6587 7.94718 15.3049 7.94718 14.8681V8.99517C7.94664 8.55827 7.59387 8.20496 7.15518 8.20496Z" fill="#636363"/>
<path fill-rule="evenodd" clip-rule="evenodd" d="M7.15518 8.71022H1.29093C1.13284 8.71022 1.00526 8.83817 1.00526 8.99517V14.8681C1.00526 15.0253 1.13322 15.1534 1.29093 15.1534H7.15518C7.3152 15.1534 7.44192 15.0254 7.44192 14.8681L7.44192 8.99579C7.44192 8.9957 7.44192 8.99589 7.44192 8.99579C7.44157 8.83776 7.31491 8.71022 7.15518 8.71022ZM7.94718 8.99517V14.8681C7.94718 15.3049 7.59387 15.6587 7.15518 15.6587H1.29093C0.854653 15.6587 0.5 15.3049 0.5 14.8681V8.99517C0.5 8.55827 0.854653 8.20496 1.29093 8.20496H7.15518C7.59387 8.20496 7.94664 8.55827 7.94718 8.99517Z" fill="#636363"/>
<path d="M7.15518 16.5452H1.29093C0.854653 16.5452 0.5 16.8985 0.5 17.3354V23.2088C0.5 23.6455 0.854653 23.9994 1.29093 23.9994H7.15518C7.59387 23.9994 7.94718 23.6455 7.94718 23.2088V17.3354C7.94664 16.8985 7.59387 16.5452 7.15518 16.5452Z" fill="#636363"/>
<path fill-rule="evenodd" clip-rule="evenodd" d="M7.15518 17.0504H1.29093C1.13285 17.0504 1.00526 17.1784 1.00526 17.3354V23.2088C1.00526 23.366 1.13322 23.4941 1.29093 23.4941H7.15518C7.3152 23.4941 7.44192 23.3661 7.44192 23.2088L7.44192 17.336C7.44192 17.3359 7.44192 17.3361 7.44192 17.336C7.44157 17.178 7.31491 17.0504 7.15518 17.0504ZM7.94718 17.3354V23.2088C7.94718 23.6455 7.59387 23.9994 7.15518 23.9994H1.29093C0.854653 23.9994 0.5 23.6455 0.5 23.2088V17.3354C0.5 16.8985 0.854653 16.5452 1.29093 16.5452H7.15518C7.59387 16.5452 7.94664 16.8985 7.94718 17.3354Z" fill="#636363"/>
<path d="M15.43 0.000976562H9.56437C9.12809 0.000976562 8.77344 0.354824 8.77344 0.791639V6.66398C8.77344 7.1008 9.12809 7.45464 9.56437 7.45464H15.43C15.8662 7.45464 16.2212 7.1008 16.2212 6.66398V0.791101C16.2201 0.354286 15.8662 0.000976562 15.43 0.000976562Z" fill="#636363"/>
<path fill-rule="evenodd" clip-rule="evenodd" d="M15.43 0.50624H9.56437C9.40669 0.50624 9.2787 0.634319 9.2787 0.791639V6.66398C9.2787 6.8213 9.40669 6.94938 9.56437 6.94938H15.43C15.5879 6.94938 15.7159 6.82108 15.7159 6.66398V0.791901C15.7153 0.633352 15.587 0.50624 15.43 0.50624ZM9.56437 0.000976562H15.43C15.8662 0.000976562 16.2201 0.354286 16.2212 0.791101V6.66398C16.2212 7.1008 15.8662 7.45464 15.43 7.45464H9.56437C9.12809 7.45464 8.77344 7.1008 8.77344 6.66398V0.791639C8.77344 0.354824 9.12809 0.000976562 9.56437 0.000976562Z" fill="#636363"/>
<path d="M15.43 8.06812H9.56437C9.12809 8.06812 8.77344 8.42223 8.77344 8.85905V14.7307C8.77344 15.1674 9.12809 15.5212 9.56437 15.5212H15.43C15.8662 15.5212 16.2212 15.1674 16.2212 14.7307V8.85905C16.2201 8.42223 15.8662 8.06812 15.43 8.06812Z" fill="#636363"/>
<path fill-rule="evenodd" clip-rule="evenodd" d="M15.43 8.57338H9.56437C9.40692 8.57338 9.2787 8.7015 9.2787 8.85905V14.7307C9.2787 14.8879 9.40666 15.016 9.56437 15.016H15.43C15.5879 15.016 15.7159 14.8876 15.7159 14.7307V8.85985C15.7153 8.70063 15.5864 8.57338 15.43 8.57338ZM16.2212 8.85905V14.7307C16.2212 15.1674 15.8662 15.5212 15.43 15.5212H9.56437C9.12809 15.5212 8.77344 15.1674 8.77344 14.7307V8.85905C8.77344 8.42223 9.12809 8.06812 9.56437 8.06812H15.43C15.8662 8.06812 16.2201 8.42223 16.2212 8.85905Z" fill="#636363"/>
<path d="M15.43 16.4088H9.56437C9.12809 16.4088 8.77344 16.7625 8.77344 17.1994V23.0713C8.77344 23.5085 9.12809 23.8618 9.56437 23.8618H15.43C15.8662 23.8618 16.2212 23.5085 16.2212 23.0713V17.1994C16.2201 16.7626 15.8662 16.4088 15.43 16.4088Z" fill="#636363"/>
<path fill-rule="evenodd" clip-rule="evenodd" d="M15.43 16.914H9.56437C9.40662 16.914 9.2787 17.0421 9.2787 17.1994V23.0713C9.2787 23.2288 9.40643 23.3566 9.56437 23.3566H15.43C15.5881 23.3566 15.7159 23.2285 15.7159 23.0713V17.2002C15.7153 17.0413 15.5866 16.914 15.43 16.914ZM16.2212 17.1994V23.0713C16.2212 23.5085 15.8662 23.8618 15.43 23.8618H9.56437C9.12809 23.8618 8.77344 23.5085 8.77344 23.0713V17.1994C8.77344 16.7625 9.12809 16.4088 9.56437 16.4088H15.43C15.8662 16.4088 16.2201 16.7626 16.2212 17.1994Z" fill="#636363"/>
<path d="M23.7092 0.00152427H17.8455C17.4092 0.00152427 17.0543 0.355641 17.0543 0.792456V6.66399C17.0543 7.10135 17.4092 7.45465 17.8455 7.45465H23.7097C24.146 7.45465 24.5009 7.10135 24.5009 6.66399V0.792456C24.4998 0.354833 24.1455 0.00152427 23.7092 0.00152427Z" fill="#636363"/>
<path fill-rule="evenodd" clip-rule="evenodd" d="M23.7092 0.506787H17.8455C17.6878 0.506787 17.5595 0.635135 17.5595 0.792456V6.66399C17.5595 6.8214 17.6874 6.94939 17.8455 6.94939H23.7097C23.8678 6.94939 23.9957 6.8214 23.9957 6.66399V0.793253C23.995 0.634012 23.8664 0.506787 23.7092 0.506787ZM24.5009 0.792456V6.66399C24.5009 7.10135 24.146 7.45465 23.7097 7.45465H17.8455C17.4092 7.45465 17.0543 7.10135 17.0543 6.66399V0.792456C17.0543 0.355641 17.4092 0.00152427 17.8455 0.00152427H23.7092C24.1455 0.00152427 24.4998 0.354833 24.5009 0.792456Z" fill="#636363"/>
<path d="M23.7092 8.06973H17.8455C17.4092 8.06973 17.0543 8.42331 17.0543 8.86066V14.7322C17.0543 15.169 17.4092 15.5223 17.8455 15.5223H23.7097C24.146 15.5223 24.5009 15.1691 24.5009 14.7322V8.86066C24.4998 8.42331 24.1455 8.06973 23.7092 8.06973Z" fill="#636363"/>
<path fill-rule="evenodd" clip-rule="evenodd" d="M23.7092 8.57499H17.8455C17.6876 8.57499 17.5595 8.70303 17.5595 8.86066V14.7322C17.5595 14.8888 17.6871 15.0171 17.8455 15.0171H23.7097C23.8681 15.0171 23.9957 14.8889 23.9957 14.7322V8.86146C23.995 8.70237 23.8662 8.57499 23.7092 8.57499ZM24.5009 8.86066V14.7322C24.5009 15.1691 24.146 15.5223 23.7097 15.5223H17.8455C17.4092 15.5223 17.0543 15.169 17.0543 14.7322V8.86066C17.0543 8.42331 17.4092 8.06973 17.8455 8.06973H23.7092C24.1455 8.06973 24.4998 8.42331 24.5009 8.86066Z" fill="#636363"/>
<path d="M23.7092 16.4094H17.8455C17.4092 16.4094 17.0543 16.7632 17.0543 17.2005V23.0724C17.0543 23.5091 17.4092 23.8625 17.8455 23.8625H23.7097C24.146 23.8625 24.5009 23.5092 24.5009 23.0724V17.2005C24.4998 16.7633 24.1455 16.4094 23.7092 16.4094Z" fill="#636363"/>
<path fill-rule="evenodd" clip-rule="evenodd" d="M23.7092 16.9147H17.8455C17.6878 16.9147 17.5595 17.0428 17.5595 17.2005V23.0724C17.5595 23.229 17.6872 23.3573 17.8455 23.3573H23.7097C23.8681 23.3573 23.9957 23.229 23.9957 23.0724V17.2013C23.995 17.0422 23.866 16.9147 23.7092 16.9147ZM24.5009 17.2005V23.0724C24.5009 23.5092 24.146 23.8625 23.7097 23.8625H17.8455C17.4092 23.8625 17.0543 23.5091 17.0543 23.0724V17.2005C17.0543 16.7632 17.4092 16.4094 17.8455 16.4094H23.7092C24.1455 16.4094 24.4998 16.7633 24.5009 17.2005Z" fill="#636363"/>
</svg>
