<svg width="24" height="20" viewBox="0 0 24 20" fill="none" xmlns="http://www.w3.org/2000/svg">
<path d="M22.6846 1.4513C21.8406 0.606753 20.6956 0.132423 19.5017 0.132825C18.3082 0.13001 17.1632 0.604189 16.3211 1.44984L10.5107 7.26024C9.36111 8.41166 8.92162 10.0935 9.36101 11.6601C9.48966 12.1162 9.96369 12.3816 10.4198 12.253C10.8759 12.1243 11.1413 11.6503 11.0126 11.1942C10.7418 10.2254 11.0136 9.18577 11.7239 8.47349L17.5343 2.66394C18.6206 1.57738 20.3821 1.57718 21.4686 2.66354C22.5552 3.74985 22.5554 5.51133 21.4691 6.59789L15.6587 12.4082C15.2779 12.7895 14.7944 13.0516 14.2671 13.1625C13.8031 13.259 13.5054 13.7134 13.6019 14.1773C13.685 14.5762 14.0372 14.8617 14.4446 14.8604C14.5046 14.8605 14.5644 14.8542 14.6231 14.8416C15.4753 14.6619 16.2567 14.238 16.8719 13.6215L22.6823 7.812C24.4394 6.05615 24.4404 3.20841 22.6846 1.4513Z" fill="#171723"/>
<path d="M14.6146 8.36365C14.486 7.90757 14.012 7.64213 13.5559 7.77078C13.0998 7.89943 12.8344 8.37346 12.963 8.82954C13.2339 9.79836 12.9621 10.838 12.2517 11.5502L6.44133 17.3606C5.35502 18.4472 3.59354 18.4474 2.50698 17.361C1.42041 16.2747 1.42021 14.5133 2.50652 13.4267L8.31693 7.61543C8.6971 7.23426 9.18012 6.97218 9.70689 6.86123C10.1716 6.76828 10.4729 6.31627 10.38 5.85164C10.287 5.38701 9.83499 5.08562 9.37036 5.17858C9.36468 5.17973 9.35905 5.18089 9.35342 5.18215C8.50108 5.36208 7.71943 5.78598 7.10373 6.40223L1.29332 12.2126C-0.449959 13.9828 -0.428141 16.831 1.34204 18.5743C3.09291 20.2985 5.9034 20.2987 7.65453 18.5747L13.4649 12.7634C14.6145 11.612 15.054 9.93022 14.6146 8.36365Z" fill="#171723"/>
</svg>
