<svg width="27" height="24" viewBox="0 0 27 24" fill="none" xmlns="http://www.w3.org/2000/svg">
<path d="M18.36 0C18.7544 0 19.1451 0.0758036 19.5095 0.223083C19.874 0.370362 20.2051 0.586232 20.484 0.858369C20.763 1.1305 20.9843 1.45358 21.1352 1.80914C21.2862 2.1647 21.3639 2.54579 21.3639 2.93065V3.91145H22.3652C23.516 3.91214 24.6195 4.35827 25.4335 5.15192C26.2475 5.94556 26.7054 7.02188 26.7068 8.14461L26.7109 15.9558C26.711 16.3405 26.6335 16.7214 26.4828 17.0769C26.3321 17.4324 26.111 17.7554 25.8324 18.0275C25.5537 18.2997 25.2228 18.5156 24.8585 18.663C24.4943 18.8103 24.1039 18.8863 23.7096 18.8864H21.3612V20.5146C21.3612 21.2918 21.0447 22.0373 20.4814 22.5869C19.918 23.1365 19.154 23.4452 18.3573 23.4452H8.34422C7.54753 23.4452 6.78347 23.1365 6.22013 22.5869C5.65678 22.0373 5.3403 21.2918 5.3403 20.5146V18.8864H3.00392C2.20723 18.8864 1.44317 18.5777 0.879827 18.0281C0.316483 17.4785 0 16.733 0 15.9558V8.14592C0 7.02321 0.457143 5.94649 1.27086 5.15261C2.08458 4.35874 3.18822 3.91275 4.33899 3.91275L5.33897 3.91145L5.3403 2.93065C5.3403 2.1534 5.65678 1.40797 6.22013 0.858369C6.78347 0.308764 7.54753 0 8.34422 0H18.36ZM18.3573 13.6764H8.34422C8.07866 13.6764 7.82397 13.7793 7.63619 13.9625C7.44841 14.1457 7.34291 14.3942 7.34291 14.6533V20.5146C7.34291 21.0538 7.7915 21.4915 8.34422 21.4915H18.3573C18.6228 21.4915 18.8775 21.3885 19.0653 21.2053C19.2531 21.0221 19.3586 20.7737 19.3586 20.5146V14.6533C19.3586 14.3942 19.2531 14.1457 19.0653 13.9625C18.8775 13.7793 18.6228 13.6764 18.3573 13.6764ZM22.3652 5.86652H4.33899C3.71935 5.86652 3.12508 6.10667 2.68692 6.53414C2.24877 6.96161 2.00261 7.54138 2.00261 8.14592V15.9558C2.00261 16.495 2.4512 16.9327 3.00392 16.9327H5.3403V14.6533C5.3403 13.876 5.65678 13.1306 6.22013 12.581C6.78347 12.0314 7.54753 11.7226 8.34422 11.7226H18.3573C19.154 11.7226 19.918 12.0314 20.4814 12.581C21.0447 13.1306 21.3612 13.876 21.3612 14.6533V16.9327H23.7416C24.001 16.9242 24.2469 16.8177 24.4272 16.6357C24.6076 16.4536 24.7084 16.2103 24.7082 15.9571L24.7042 8.14592C24.7028 7.54135 24.4558 6.96199 24.0174 6.53474C23.579 6.10749 22.9849 5.86721 22.3652 5.86652ZM18.36 1.95377H8.34422C8.07866 1.95377 7.82397 2.05669 7.63619 2.23989C7.44841 2.42309 7.34291 2.67157 7.34291 2.93065L7.34158 3.91145H19.3613V2.93065C19.3613 2.67157 19.2558 2.42309 19.068 2.23989C18.8802 2.05669 18.6255 1.95377 18.36 1.95377Z" fill="white"/>
<path fill-rule="evenodd" clip-rule="evenodd" d="M20.9616 4.3137V2.93065C20.9616 2.60002 20.8949 2.27237 20.765 1.96634C20.635 1.66029 20.4443 1.38154 20.2031 1.14629C19.962 0.91102 19.6752 0.723881 19.3588 0.596032C19.0424 0.468176 18.703 0.40225 18.36 0.40225H8.34422C7.65105 0.40225 6.98822 0.670987 6.50103 1.14629C6.01418 1.62127 5.74255 2.26333 5.74255 2.93065L5.74067 4.31317L4.33952 4.315C3.29227 4.315 2.28933 4.72096 1.55176 5.44054C0.814537 6.15978 0.40225 7.13314 0.40225 8.14592V15.9558C0.40225 16.6231 0.673878 17.2652 1.16073 17.7401C1.64792 18.2154 2.31075 18.4842 3.00392 18.4842H5.74255V20.5146C5.74255 21.1819 6.01418 21.824 6.50103 22.2989C6.98822 22.7742 7.65105 23.043 8.34422 23.043H18.3573C19.0504 23.043 19.7133 22.7742 20.2005 22.2989C20.6873 21.824 20.959 21.1819 20.959 20.5146V18.4842H23.7094C24.0522 18.484 24.3916 18.418 24.7077 18.2901C25.0238 18.1622 25.3104 17.975 25.5513 17.7397C25.7922 17.5045 25.9827 17.2258 26.1125 16.9199C26.2422 16.6139 26.3088 16.2864 26.3086 15.956L26.3046 8.14512C26.3033 7.13218 25.8902 6.15906 25.1527 5.43992C24.4148 4.72046 23.4123 4.31432 22.3649 4.3137H20.9616ZM22.3652 3.91145C23.516 3.91214 24.6195 4.35827 25.4335 5.15192C26.2475 5.94556 26.7054 7.02188 26.7068 8.14461L26.7109 15.9558C26.711 16.3405 26.6335 16.7214 26.4828 17.0769C26.3321 17.4324 26.111 17.7554 25.8324 18.0275C25.5537 18.2997 25.2228 18.5156 24.8585 18.663C24.4943 18.8103 24.1039 18.8863 23.7096 18.8864H21.3612V20.5146C21.3612 21.2918 21.0447 22.0373 20.4814 22.5869C19.918 23.1365 19.154 23.4452 18.3573 23.4452H8.34422C7.54753 23.4452 6.78347 23.1365 6.22013 22.5869C5.65678 22.0373 5.3403 21.2918 5.3403 20.5146V18.8864H3.00392C2.20723 18.8864 1.44317 18.5777 0.879827 18.0281C0.316483 17.4785 0 16.733 0 15.9558V8.14592C0 7.02321 0.457143 5.94649 1.27086 5.15261C2.08458 4.35874 3.18822 3.91275 4.33899 3.91275L5.33897 3.91145L5.3403 2.93065C5.3403 2.1534 5.65678 1.40797 6.22013 0.858369C6.78347 0.308764 7.54753 0 8.34422 0H18.36C18.7544 0 19.1451 0.0758036 19.5095 0.223083C19.874 0.370362 20.2051 0.586232 20.484 0.858369C20.763 1.1305 20.9843 1.45358 21.1352 1.80914C21.2862 2.1647 21.3639 2.54579 21.3639 2.93065V3.91145H22.3652ZM22.3656 5.46427C23.0886 5.46507 23.7837 5.74532 24.2982 6.24666C24.8129 6.74832 25.1048 7.43073 25.1065 8.14497L25.1105 15.9569C25.1107 16.3176 24.967 16.6624 24.713 16.9188C24.4593 17.1749 24.1154 17.323 23.7547 17.3347L23.7416 17.3351L20.959 17.3349V14.6533C20.959 13.9859 20.6873 13.3439 20.2005 12.8689C19.7133 12.3936 19.0505 12.1249 18.3573 12.1249H8.34422C7.65105 12.1249 6.98822 12.3936 6.50103 12.8689C6.01418 13.3439 5.74255 13.9859 5.74255 14.6533V17.3349H3.00392C2.23846 17.3349 1.60036 16.7265 1.60036 15.9558V8.14592C1.60036 7.43145 1.89137 6.74831 2.40602 6.24622C2.92034 5.74445 3.61582 5.46427 4.33899 5.46427H22.3656ZM19.3613 2.93065C19.3613 2.67157 19.2558 2.42309 19.068 2.23989C18.8802 2.05669 18.6255 1.95377 18.36 1.95377H8.34422C8.07866 1.95377 7.82397 2.05669 7.63619 2.23989C7.44841 2.42309 7.34291 2.67157 7.34291 2.93065L7.34158 3.91145H19.3613V2.93065ZM6.94066 2.93065L6.93878 4.3137H19.7635V2.93065C19.7635 2.56163 19.6132 2.2098 19.3489 1.95197C19.0849 1.69447 18.729 1.55152 18.36 1.55152H8.34422C7.97513 1.55152 7.61923 1.69447 7.35529 1.95197C7.09106 2.20975 6.94072 2.56171 6.94066 2.93065ZM8.34422 13.2741H18.3573C18.7264 13.2741 19.0823 13.4171 19.3462 13.6746C19.6105 13.9324 19.7608 14.2843 19.7608 14.6533V20.5146C19.7608 20.8836 19.6105 21.2354 19.3462 21.4933C19.0823 21.7508 18.7264 21.8937 18.3573 21.8937H8.34422C7.57876 21.8937 6.94066 21.2853 6.94066 20.5146V14.6533C6.94066 14.2843 7.09101 13.9324 7.35529 13.6746C7.61923 13.4171 7.97513 13.2741 8.34422 13.2741ZM23.7416 16.9327H21.3612V14.6533C21.3612 13.876 21.0447 13.1306 20.4814 12.581C19.918 12.0314 19.154 11.7226 18.3573 11.7226H8.34422C7.54753 11.7226 6.78347 12.0314 6.22013 12.581C5.65678 13.1306 5.3403 13.876 5.3403 14.6533V16.9327H3.00392C2.4512 16.9327 2.00261 16.495 2.00261 15.9558V8.14592C2.00261 7.54138 2.24877 6.96161 2.68692 6.53414C3.12508 6.10667 3.71935 5.86652 4.33899 5.86652H22.3652C22.9849 5.86721 23.579 6.10749 24.0174 6.53474C24.4558 6.96199 24.7028 7.54135 24.7042 8.14592L24.7082 15.9571C24.7084 16.2103 24.6076 16.4536 24.4272 16.6357C24.2469 16.8177 24.001 16.9242 23.7416 16.9327ZM8.34422 13.6764H18.3573C18.6228 13.6764 18.8775 13.7793 19.0653 13.9625C19.2531 14.1457 19.3586 14.3942 19.3586 14.6533V20.5146C19.3586 20.7737 19.2531 21.0221 19.0653 21.2053C18.8775 21.3885 18.6228 21.4915 18.3573 21.4915H8.34422C7.7915 21.4915 7.34291 21.0538 7.34291 20.5146V14.6533C7.34291 14.3942 7.44841 14.1457 7.63619 13.9625C7.82397 13.7793 8.07866 13.6764 8.34422 13.6764Z" fill="white"/>
</svg>
