<svg width="28" height="18" viewBox="0 0 28 18" fill="none" xmlns="http://www.w3.org/2000/svg">
<path d="M14.1692 17.75C18.2198 17.75 16.7755 15.1857 17.0882 14.4483C17.0835 13.8977 17.0788 13.368 17.0975 13.046C17.3542 13.1183 17.9597 13.4252 19.2103 14.6408C21.1412 16.5892 21.6347 17.75 23.1945 17.75H26.0657C26.9757 17.75 27.4493 17.3732 27.6862 17.057C27.9148 16.7513 28.1388 16.2147 27.8938 15.3793C27.2533 13.368 23.5177 9.89483 23.2855 9.5285C23.3205 9.46083 23.3765 9.371 23.4057 9.32433H23.4033C24.1407 8.35017 26.9547 4.13383 27.3688 2.44683C27.37 2.4445 27.3712 2.441 27.3712 2.4375C27.5952 1.6675 27.3898 1.16817 27.1775 0.885833C26.8578 0.4635 26.3492 0.25 25.662 0.25H22.7908C21.8295 0.25 21.1003 0.734167 20.7317 1.61733C20.1145 3.1865 18.3808 6.4135 17.0812 7.55567C17.0415 5.9375 17.0683 4.702 17.0893 3.78383C17.1313 1.993 17.2667 0.25 15.4082 0.25H10.8955C9.73117 0.25 8.617 1.52167 9.82333 3.03133C10.878 4.35433 10.2025 5.09167 10.43 8.762C9.54333 7.81117 7.966 5.24333 6.85067 1.9615C6.538 1.07367 6.06433 0.251167 4.73083 0.251167H1.85967C0.695333 0.251167 0 0.885833 0 1.94867C0 4.33567 5.28383 17.75 14.1692 17.75ZM4.73083 2.00117C4.984 2.00117 5.00967 2.00117 5.1975 2.53433C6.33967 5.89783 8.90167 10.8748 10.773 10.8748C12.1788 10.8748 12.1788 9.434 12.1788 8.8915L12.1777 4.5725C12.1007 3.14333 11.5803 2.43167 11.2385 2L15.3312 2.00467C15.3335 2.0245 15.3078 6.78217 15.3428 7.93483C15.3428 9.57167 16.6425 10.5097 18.6713 8.45633C20.8122 6.04017 22.2927 2.42817 22.3522 2.28117C22.4397 2.07117 22.5155 2 22.7908 2H25.6737C25.6725 2.0035 25.6725 2.007 25.6713 2.0105C25.4088 3.2355 22.8177 7.13917 21.9508 8.35133C21.9368 8.37 21.924 8.38983 21.9112 8.40967C21.5297 9.03267 21.2193 9.721 21.9637 10.6893H21.9648C22.0325 10.771 22.2087 10.9623 22.4653 11.2283C23.2633 12.052 26.0003 14.8683 26.243 15.9883C26.082 16.014 25.907 15.9953 23.1945 16.0012C22.617 16.0012 22.1655 15.1378 20.4423 13.3995C18.893 11.8922 17.8873 11.2762 16.9715 11.2762C15.1935 11.2762 15.323 12.7193 15.3393 14.4647C15.3452 16.357 15.3335 15.7585 15.3463 15.8775C15.2425 15.9183 14.945 16 14.1692 16C6.76667 16 1.946 4.2505 1.7605 2.00467C1.82467 1.99883 2.70783 2.00233 4.73083 2.00117Z" fill="#171723"/>
</svg>
