<svg width="13" height="13" viewBox="0 0 13 13" fill="none" xmlns="http://www.w3.org/2000/svg">
<path d="M6.59505 0C8.27476 0 9.88566 0.66726 11.0734 1.85499C12.2611 3.04272 12.9284 4.65363 12.9284 6.33333C12.9284 8.01304 12.2611 9.62395 11.0734 10.8117C9.88566 11.9994 8.27476 12.6667 6.59505 12.6667C4.91535 12.6667 3.30444 11.9994 2.11671 10.8117C0.928979 9.62395 0.261719 8.01304 0.261719 6.33333C0.261719 4.65363 0.928979 3.04272 2.11671 1.85499C3.30444 0.66726 4.91535 0 6.59505 0ZM6.59505 0.666667C5.09216 0.666667 3.65082 1.26369 2.58811 2.3264C1.52541 3.3891 0.928385 4.83044 0.928385 6.33333C0.928385 7.83623 1.52541 9.27757 2.58811 10.3403C3.65082 11.403 5.09216 12 6.59505 12C8.09795 12 9.53928 11.403 10.602 10.3403C11.6647 9.27757 12.2617 7.83623 12.2617 6.33333C12.2617 4.83044 11.6647 3.3891 10.602 2.3264C9.53928 1.26369 8.09795 0.666667 6.59505 0.666667ZM6.26172 3.33333V4.66667H6.92839V3.33333H6.26172ZM6.26172 6V9.33333H6.92839V6H6.26172Z" fill="#171723"/>
</svg>
