<svg width="30" height="27" viewBox="0 0 30 27" fill="none" xmlns="http://www.w3.org/2000/svg">
<path d="M21.2788 -0.000319156C23.4852 0.00308823 25.5911 0.922231 27.094 2.53764C30.2622 5.95476 30.2622 11.236 27.0941 14.6531L15.6982 26.6752C15.6853 26.6888 15.672 26.7021 15.6584 26.715C15.242 27.1094 14.5848 27.0916 14.1904 26.6752L2.79035 14.6531C-0.378033 11.2357 -0.378033 5.95409 2.79035 2.5366C2.92275 2.3941 3.06032 2.25659 3.20276 2.12419C6.41727 -0.86257 11.4445 -0.677963 14.4313 2.5366L14.9442 3.07868L15.4572 2.5366C16.9625 0.920892 19.0706 0.00223638 21.2788 -0.000319156Z" fill="#171723"/>
<path fill-rule="evenodd" clip-rule="evenodd" d="M14.1904 26.6752C14.5848 27.0916 15.242 27.1094 15.6584 26.715C15.672 26.7021 15.6853 26.6888 15.6982 26.6752L27.0941 14.6531C30.2622 11.236 30.2622 5.95476 27.094 2.53764C25.5911 0.922231 23.4852 0.00308823 21.2788 -0.000319156C19.0706 0.00223638 16.9625 0.920892 15.4572 2.5366L14.9442 3.07868L14.4313 2.5366C11.4445 -0.677963 6.41727 -0.86257 3.20276 2.12419C3.06032 2.25659 2.92275 2.3941 2.79035 2.5366C-0.378033 5.95409 -0.378033 11.2357 2.79035 14.6531L14.1904 26.6752ZM3.00919 14.4479C3.00958 14.4483 3.00996 14.4488 3.01035 14.4492L14.4081 26.4688C14.6885 26.7649 15.156 26.7776 15.4521 26.4972C15.4617 26.4881 15.4712 26.4786 15.4803 26.469L26.8741 14.4492C26.8744 14.4488 26.8748 14.4484 26.8751 14.448C29.9355 11.146 29.9352 6.04349 26.8742 2.7418C25.428 1.18749 23.4017 0.303071 21.2787 0.299681C19.1538 0.302253 17.1252 1.18631 15.6767 2.74109L15.6751 2.74281L14.9442 3.51514L14.2115 2.74081C11.3375 -0.352371 6.50009 -0.530018 3.40697 2.34396C3.26987 2.4714 3.13754 2.60367 3.01019 2.74073C-0.050981 6.04275 -0.0513146 11.1455 3.00919 14.4479Z" fill="#171723"/>
</svg>
