<svg width="24" height="24" viewBox="0 0 24 24" fill="none" xmlns="http://www.w3.org/2000/svg">
<path d="M0.252633 0C0.113108 0 0 0.113107 0 0.252632V23.7474C0 23.8869 0.113107 24 0.252632 24H23.7474C23.8869 24 24 23.8869 24 23.7474V0.252633C24 0.113108 23.8869 0 23.7474 0H0.252633ZM21.6774 21.6774H2.57519C2.43567 21.6774 2.32256 21.5643 2.32256 21.4248V2.57519C2.32256 2.43567 2.43567 2.32256 2.57519 2.32256H21.4248C21.5643 2.32256 21.6774 2.43567 21.6774 2.57519L21.6774 21.6774C21.6774 21.6774 21.6774 21.6775 21.6774 21.6774Z" fill="black"/>
<path d="M19.0972 14.3225H4.89285C4.75332 14.3225 4.64021 14.4356 4.64021 14.5751V17.1667C4.64021 17.3062 4.75332 17.4193 4.89285 17.4193H19.0972C19.2368 17.4193 19.3499 17.3062 19.3499 17.1667V14.5751C19.3499 14.4356 19.2368 14.3225 19.0972 14.3225Z" fill="black"/>
<path fill-rule="evenodd" clip-rule="evenodd" d="M19.0972 14.4488H4.89285C4.82308 14.4488 4.76653 14.5054 4.76653 14.5751V17.1667C4.76653 17.2364 4.82308 17.293 4.89285 17.293H19.0972C19.167 17.293 19.2236 17.2364 19.2236 17.1667V14.5751C19.2236 14.5054 19.167 14.4488 19.0972 14.4488ZM4.89285 14.3225H19.0972C19.2368 14.3225 19.3499 14.4356 19.3499 14.5751V17.1667C19.3499 17.3062 19.2368 17.4193 19.0972 17.4193H4.89285C4.75332 17.4193 4.64021 17.3062 4.64021 17.1667V14.5751C4.64021 14.4356 4.75332 14.3225 4.89285 14.3225Z" fill="black"/>
<path d="M19.0972 6.5806H4.89285C4.75332 6.5806 4.64021 6.69371 4.64021 6.83323V9.42476C4.64021 9.56429 4.75332 9.67739 4.89285 9.67739H19.0972C19.2368 9.67739 19.3499 9.56429 19.3499 9.42476V6.83323C19.3499 6.69371 19.2368 6.5806 19.0972 6.5806Z" fill="black"/>
<path fill-rule="evenodd" clip-rule="evenodd" d="M19.0972 6.70691H4.89285C4.82308 6.70691 4.76653 6.76347 4.76653 6.83323V9.42476C4.76653 9.49452 4.82308 9.55108 4.89285 9.55108H19.0972C19.167 9.55108 19.2236 9.49452 19.2236 9.42476V6.83323C19.2236 6.76347 19.167 6.70691 19.0972 6.70691ZM4.89285 6.5806H19.0972C19.2368 6.5806 19.3499 6.69371 19.3499 6.83323V9.42476C19.3499 9.56429 19.2368 9.67739 19.0972 9.67739H4.89285C4.75332 9.67739 4.64021 9.56429 4.64021 9.42476V6.83323C4.64021 6.69371 4.75332 6.5806 4.89285 6.5806Z" fill="black"/>
</svg>
