<svg width="27" height="27" viewBox="0 0 27 27" fill="none" xmlns="http://www.w3.org/2000/svg">
<path d="M9.89445 0H2.30486C1.03396 0 0 1.03396 0 2.30486V9.89445C0 11.1653 1.03396 12.1993 2.30486 12.1993H9.89445C11.1653 12.1993 12.1993 11.1653 12.1993 9.89445V2.30486C12.1993 1.03396 11.1653 0 9.89445 0Z" fill="#171723"/>
<path d="M24.6951 0H17.1056C15.8347 0 14.8007 1.03396 14.8007 2.30486V9.89445C14.8007 11.1653 15.8347 12.1993 17.1056 12.1993H24.6951C25.966 12.1993 27 11.1653 27 9.89445V2.30486C27 1.03396 25.966 0 24.6951 0Z" fill="#171723"/>
<path d="M9.89445 14.8007H2.30486C1.03396 14.8007 0 15.8346 0 17.1055V24.6951C0 25.966 1.03396 27 2.30486 27H9.89445C11.1653 27 12.1993 25.966 12.1993 24.6951V17.1055C12.1993 15.8346 11.1653 14.8007 9.89445 14.8007Z" fill="#171723"/>
<path d="M24.6951 14.8007H17.1056C15.8347 14.8007 14.8007 15.8346 14.8007 17.1055V24.6951C14.8007 25.966 15.8347 27 17.1056 27H24.6951C25.966 27 27 25.966 27 24.6951V17.1055C27 15.8346 25.966 14.8007 24.6951 14.8007Z" fill="#171723"/>
</svg>
