<svg width="68" height="68" viewBox="0 0 68 68" fill="none" xmlns="http://www.w3.org/2000/svg">
<path d="M10.0749 65.8999H57.7399C61.6044 65.8952 64.7364 62.7637 64.7405 58.8992V26.5549C64.7405 26.1751 64.5339 25.8247 64.2007 25.6418L38.4236 3.81503C35.8147 1.59377 31.9786 1.5947 29.3715 3.81877L3.67654 25.611C3.30936 25.7823 3.07469 26.1499 3.07422 26.5549V58.8992C3.07888 62.7637 6.2104 65.8952 10.0749 65.8999ZM10.0749 63.8144C8.99899 63.8153 7.95298 63.4612 7.09871 62.8076L21.3533 48.2273C21.6179 47.9618 21.7196 47.5746 21.6193 47.2134C21.5194 46.8528 21.233 46.5729 20.87 46.481C20.507 46.3895 20.1221 46.4996 19.8627 46.7693L5.74104 61.2138C5.35847 60.5023 5.15878 59.7068 5.15972 58.8992V28.8536L29.3916 49.3722C32.0006 51.5935 35.8371 51.5916 38.4442 49.3685L62.6555 28.834V58.8992C62.6565 59.7096 62.4558 60.5079 62.0709 61.2217L47.8648 46.7674C47.4603 46.3601 46.8029 46.3564 46.3938 46.7586C45.9841 47.1603 45.9771 47.8181 46.3774 48.2291L60.71 62.8127C59.8571 63.4631 58.8134 63.8158 57.7399 63.8144H10.0749ZM30.7199 5.40878C32.5506 3.84769 35.2441 3.84676 37.0758 5.40645L62.0849 26.5829L37.0953 47.7775C35.2641 49.3386 32.5716 49.34 30.7399 47.7808L5.73031 26.6039L30.7199 5.40878Z" fill="#D90002"/>
</svg>
