<svg width="42" height="42" viewBox="0 0 42 42" fill="none" xmlns="http://www.w3.org/2000/svg">
<path d="M17.0625 2.255H16.6925V2.625V14.0675H14.8075V1.3125C14.8075 0.792345 15.2298 0.37 15.75 0.37H36.75C37.2702 0.37 37.6925 0.792345 37.6925 1.3125V40.6875C37.6925 41.2077 37.2702 41.63 36.75 41.63H15.75C15.2298 41.63 14.8075 41.2077 14.8075 40.6875V27.9325H16.6925V39.375V39.745H17.0625H35.4375H35.8075V39.375V2.625V2.255H35.4375H17.0625Z" fill="#464646" stroke="white" stroke-width="0.74"/>
<path d="M25.7066 21.9427H4.3075V20.0577H25.7066H26.5999L25.9683 19.4261L20.5953 14.0531L21.9279 12.7205L29.5413 20.3339C29.91 20.7026 29.91 21.2978 29.5413 21.6665L21.9279 29.2799L20.5953 27.9473L25.9683 22.5743L26.5999 21.9427H25.7066Z" fill="#464646" stroke="white" stroke-width="0.74"/>
</svg>
