<svg width="63" height="63" viewBox="0 0 63 63" fill="none" xmlns="http://www.w3.org/2000/svg">
<g clip-path="url(#clip0)">
<path d="M31.5776 0C14.2083 0 0.078125 14.1302 0.078125 31.5001C0.078125 48.8694 14.2083 63.0002 31.5776 63.0002C48.9464 63.0002 63.0766 48.8694 63.0766 31.5001C63.0766 14.1302 48.9464 0 31.5776 0ZM31.5776 60.432C15.6249 60.432 2.6463 47.4523 2.6463 31.5001C2.6463 15.5473 15.6249 2.56818 31.5776 2.56818C47.5298 2.56818 60.5084 15.5473 60.5084 31.5001C60.5084 47.4523 47.5298 60.432 31.5776 60.432Z" fill="#D90002"/>
<path d="M47.8463 18.9396L25.4487 41.3367L15.3093 31.1978C14.8078 30.6963 13.9953 30.6963 13.4933 31.1978C12.9918 31.6993 12.9918 32.5118 13.4933 33.0138L24.5407 44.0606C24.7914 44.3114 25.12 44.4365 25.4487 44.4365C25.7773 44.4365 26.1059 44.3114 26.3567 44.0606L49.6623 20.7556C50.1637 20.2541 50.1637 19.441 49.6623 18.9396C49.1608 18.4381 48.3477 18.4381 47.8463 18.9396Z" fill="#D90002"/>
</g>
<defs>
<clipPath id="clip0">
<rect width="63" height="63" fill="white"/>
</clipPath>
</defs>
</svg>
