<svg width="70" height="70" viewBox="0 0 70 70" fill="none" xmlns="http://www.w3.org/2000/svg">
<g clip-path="url(#clip0)">
<path d="M64.3334 18.0237C64.2975 16.1338 64.2632 14.3485 64.2632 12.6212C64.2632 11.2681 63.1665 10.1711 61.813 10.1711C51.3344 10.1711 43.3563 7.15963 36.7062 0.693768C35.7549 -0.231419 34.241 -0.231093 33.29 0.693768C26.6405 7.15963 18.6637 10.1711 8.18578 10.1711C6.83263 10.1711 5.73561 11.2681 5.73561 12.6212C5.73561 14.3488 5.70163 16.1348 5.66537 18.025C5.32953 35.6127 4.86955 59.7 34.1956 69.865C34.4556 69.9551 34.7268 70.0002 34.9979 70.0002C35.2691 70.0002 35.5406 69.9551 35.8003 69.865C65.1286 59.6996 64.6693 35.6118 64.3334 18.0237ZM34.9979 68.5C9.84701 59.3634 7 43.5 7 18.5C7.01381 17.7766 7.00241 15.2545 6.99811 13.4031C6.99563 12.3369 7.84255 11.4727 8.90717 11.4136C21.5639 10.7115 27.373 7.67361 35 1C43.0788 8.60359 49.8026 10.3354 61.1815 11.3469C62.2097 11.4383 63.0038 12.2871 63.0032 13.3194C63.0012 16.5106 62.9843 22.677 63 23.5C63.3371 41.1808 60.1508 59.3631 34.9979 68.5Z" fill="#171723"/>
<path d="M43.4376 26.4887L31.6117 38.314L26.5654 33.2676C25.6085 32.311 24.057 32.311 23.1005 33.2676C22.1436 34.2248 22.1436 35.7759 23.1005 36.7328L29.8793 43.5116C30.3576 43.9899 30.9848 44.229 31.6117 44.229C32.2387 44.229 32.8659 43.9899 33.3442 43.5116L46.9022 29.9539C47.8594 28.9971 47.8594 27.4456 46.9025 26.4891C45.9459 25.5322 44.3945 25.5319 43.4376 26.4887Z" fill="#D90002"/>
<path fill-rule="evenodd" clip-rule="evenodd" d="M44.675 27.7262L31.6117 40.7888L25.3281 34.5052C25.3281 34.5051 25.3282 34.5053 25.3281 34.5052C25.0546 34.232 24.6111 34.2321 24.3381 34.5048C24.0643 34.7787 24.0646 35.222 24.3379 35.4953L31.1167 42.2742C31.2534 42.4109 31.4297 42.479 31.6117 42.479C31.7938 42.479 31.9701 42.4109 32.1067 42.2742L45.6648 28.7165C45.9384 28.4429 45.9383 27.9996 45.6653 27.7267C45.392 27.4533 44.9483 27.4529 44.675 27.7262ZM26.5654 33.2676L31.6117 38.314L43.4376 26.4887C44.3945 25.5319 45.9459 25.5322 46.9025 26.4891C47.8594 27.4456 47.8594 28.9971 46.9022 29.9539L33.3442 43.5116C32.8659 43.9899 32.2387 44.229 31.6117 44.229C30.9848 44.229 30.3576 43.9899 29.8793 43.5116L23.1005 36.7328C22.1436 35.7759 22.1436 34.2248 23.1005 33.2676C24.057 32.311 25.6085 32.311 26.5654 33.2676Z" fill="#F2F2F2"/>
</g>
<defs>
<clipPath id="clip0">
<rect width="70" height="70" fill="white"/>
</clipPath>
</defs>
</svg>
