<svg width="75" height="72" viewBox="0 0 75 72" fill="none" xmlns="http://www.w3.org/2000/svg">
<path d="M4.56209 61.2373L4.48617 62.2577H5.50947H63.5727H64.5961L64.5201 61.2372C63.9699 53.8469 61.1451 48.7739 55.9842 45.6071C50.9048 42.4904 43.6924 41.3054 34.5406 41.3054C25.3888 41.3054 18.1764 42.4904 13.0972 45.6071C7.93635 48.7739 5.11184 53.8469 4.56209 61.2373ZM0.95 64.0132C0.95 54.6665 3.93279 48.1915 9.48867 44.0129C15.0987 39.7935 23.4878 37.7942 34.5406 37.7942C45.5934 37.7942 53.9824 39.7937 59.5925 44.0133C65.1484 48.192 68.1311 54.6671 68.131 64.0132C68.131 64.9829 67.3452 65.7688 66.3755 65.7688H2.70551C1.73582 65.7688 0.95 64.9829 0.95 64.0132Z" fill="#171723" stroke="#F2F2F2" stroke-width="1.9"/>
<path d="M17.5437 18.3065C17.5437 8.37716 24.8513 0.95 34.5404 0.95C44.2294 0.95 51.5369 8.37713 51.5369 18.3074C51.5369 28.5985 43.8397 36.8363 34.5404 36.8363C25.241 36.8363 17.5437 28.5985 17.5437 18.3065ZM21.0548 18.3074C21.0548 26.4836 27.003 33.3262 34.5404 33.3262C42.0777 33.3262 48.0259 26.4836 48.0259 18.3074C48.0259 10.4556 42.2374 4.46101 34.5404 4.46101C26.727 4.46101 21.0548 10.3357 21.0548 18.3074Z" fill="#171723" stroke="#F2F2F2" stroke-width="1.9"/>
<ellipse cx="60.4766" cy="57.0039" rx="12.5" ry="13" fill="#FBE3E3"/>
<path d="M46.3 57.4883C46.3 49.7512 52.7512 43.3 60.4883 43.3C68.2253 43.3 74.6766 49.7512 74.6766 57.4883C74.6766 65.2253 68.2253 71.6766 60.4883 71.6766C52.7512 71.6766 46.3 65.2253 46.3 57.4883ZM48.3342 57.4883C48.3342 64.2395 53.737 69.6424 60.4883 69.6424C67.2395 69.6424 72.6424 64.2397 72.6424 57.4883C72.6424 50.737 67.2395 45.3342 60.4883 45.3342C53.737 45.3342 48.3342 50.737 48.3342 57.4883Z" fill="#D90002" stroke="#F2F2F2" stroke-width="0.6"/>
<path d="M67.8133 51.6415L67.8133 51.6415C68.2229 51.2318 68.8232 51.2317 69.233 51.6415C69.6426 52.0512 69.6426 52.6515 69.233 53.0613C69.233 53.0613 69.233 53.0613 69.2329 53.0613L58.6962 63.5983C58.631 63.6635 58.5089 63.7155 58.3322 63.745C58.1623 63.7733 57.9881 63.7738 57.8546 63.7738C57.8106 63.7738 57.7629 63.7738 57.7143 63.7727L57.5399 63.5983L52.2714 58.3298C51.8616 57.9201 51.8616 57.3197 52.2714 56.91L52.2714 56.91C52.681 56.5003 53.2813 56.5003 53.691 56.91L57.9058 61.1247L58.1179 61.3369L58.33 61.1247L67.8133 51.6415Z" fill="#D90002" stroke="#F2F2F2" stroke-width="0.6"/>
</svg>
