<svg width="46" height="42" viewBox="0 0 46 42" fill="none" xmlns="http://www.w3.org/2000/svg">
<path d="M43.5559 40.4819V40.5969H43.6709H45.1266C45.5611 40.5969 45.885 40.8999 45.885 41.241C45.885 41.5821 45.5611 41.885 45.1266 41.885H0.873415C0.438886 41.885 0.115 41.5821 0.115 41.241C0.115 40.8999 0.438887 40.5969 0.873415 40.5969H2.32914H2.44414V40.4819V0.759035C2.44414 0.41792 2.76803 0.115 3.20255 0.115H42.7974C43.232 0.115 43.5559 0.41792 43.5559 0.759035V40.4819ZM22.1266 40.5969H22.2416V40.4819V13.6626V13.5476H22.1266H13.3924H13.2774V13.6626V40.4819V40.5969H13.3924H22.1266ZM32.6076 40.5969H32.7226V40.4819V13.6626V13.5476H32.6076H23.8734H23.7584V13.6626V40.4819V40.5969H23.8734H32.6076ZM41.924 40.5969H42.039V40.4819V1.51807V1.40307H41.924H4.07597H3.96097V1.51807V40.4819V40.5969H4.07597H11.6456H11.7606V40.4819V12.9036C11.7606 12.5625 12.0845 12.2596 12.519 12.2596H33.481C33.9155 12.2596 34.2394 12.5625 34.2394 12.9036V40.4819V40.5969H34.3544H41.924Z" fill="#464646" stroke="white" stroke-width="0.23"/>
</svg>
