<svg width="44" height="44" viewBox="0 0 44 44" fill="none" xmlns="http://www.w3.org/2000/svg">
<path d="M43.2439 16.4605V21.2678H40.5185V41.8704C40.5185 42.2347 40.3749 42.584 40.1193 42.8416C39.8638 43.0992 39.5172 43.2439 39.1558 43.2439H5.08812C4.72671 43.2439 4.38012 43.0992 4.12456 42.8416C3.869 42.584 3.72541 42.2347 3.72541 41.8704V21.2678H1V16.4605L21.3111 1.26958C21.5458 1.0945 21.83 1 22.1219 1C22.4139 1 22.6981 1.0945 22.9328 1.26958L43.2439 16.4605Z" stroke="#171723" stroke-width="0.670538" stroke-linecap="round" stroke-linejoin="round"/>
<path d="M18.752 27.3121L13.3252 34.1838H10L12.9994 30.2194H13.9903V28.8979L16.431 25.6801C15.8796 24.9051 15.6061 23.9685 15.6546 23.0206C15.703 22.0727 16.0705 21.1685 16.6981 20.4529C17.3256 19.7374 18.1769 19.252 19.1154 19.0746C20.0539 18.8973 21.0251 19.0382 21.8733 19.4749C22.7214 19.9115 23.3974 20.6186 23.7928 21.4826C24.1881 22.3466 24.2799 23.3175 24.0534 24.2395C23.8269 25.1616 23.2953 25.9813 22.5438 26.5672C21.7922 27.1532 20.8644 27.4713 19.9091 27.4707C19.5181 27.4679 19.1291 27.4146 18.752 27.3121Z" stroke="#D90002" stroke-width="0.881305" stroke-linecap="round" stroke-linejoin="round"/>
<path d="M19.3413 27.4292L19.1484 29.7616L20.4719 31.0764L21.8884 29.6757L26.6302 34.1819L33.9456 26.9138L29.2903 22.2886L30.8199 20.7953L29.4965 19.4805L23.305 19.9826" stroke="#D90002" stroke-width="0.881305" stroke-linecap="square" stroke-linejoin="round"/>
</svg>
