<svg width="46" height="46" viewBox="0 0 46 46" fill="none" xmlns="http://www.w3.org/2000/svg">
<g clip-path="url(#clip0)">
<path d="M30.2179 36.0902L30.1615 36.1452L30.1748 36.223L31.7037 45.1369C31.7631 45.4833 31.4951 45.7949 31.149 45.7949C31.1247 45.7949 31.106 45.7969 31.0935 45.7983L31.0818 45.7996C31.0799 45.7997 31.0796 45.7997 31.0799 45.7997C31.084 45.7997 31.0756 45.8016 31.0282 45.7832C30.9296 45.7449 30.7262 45.6456 30.245 45.396C29.7378 45.1328 28.9309 44.7075 27.6295 44.0215C26.4785 43.4148 24.9408 42.6042 22.8816 41.5217L22.8118 41.485L22.742 41.5217L14.7366 45.7303C14.7366 45.7303 14.7366 45.7303 14.7366 45.7303C14.3245 45.9469 13.8415 45.5958 13.9202 45.137L15.4491 36.223L15.4624 36.1452L15.4059 36.0902L8.92954 29.7772C8.59621 29.4522 8.78094 28.8842 9.24144 28.8173C9.24144 28.8173 9.24144 28.8173 9.24145 28.8173L18.1917 27.5167L18.2697 27.5054L18.3046 27.4346L22.3073 19.3244C22.5134 18.9069 23.1106 18.907 23.3166 19.3244L27.3192 27.4346L27.3541 27.5054L27.4322 27.5167L36.3824 28.8173C36.3824 28.8173 36.3824 28.8173 36.3824 28.8173C36.8432 28.8843 37.0275 29.4524 36.6943 29.7772L36.799 29.8846L36.6943 29.7772L30.2179 36.0902ZM23.0739 40.351L23.0739 40.351L30.1326 44.062L30.4016 44.2034L30.3502 43.9039L29.002 36.0439C28.9707 35.8613 29.0312 35.6751 29.1639 35.5458L29.1639 35.5458L34.8746 29.9793L35.0922 29.7671L34.7914 29.7234L26.8995 28.5766L26.8995 28.5766C26.7163 28.55 26.5578 28.4349 26.4759 28.2688L26.3413 28.3352L26.4759 28.2688L22.9465 21.1175L22.812 20.8449L22.6775 21.1175L19.1482 28.2688L19.1482 28.2688C19.0663 28.4348 18.9078 28.5499 18.7245 28.5766C18.7245 28.5766 18.7245 28.5766 18.7245 28.5766L10.8326 29.7234L10.5318 29.7671L10.7495 29.9793L16.4601 35.5458L16.4602 35.5458C16.5928 35.6751 16.6533 35.8613 16.622 36.0439L15.2739 43.9039L15.2225 44.2034L15.4915 44.062L22.5502 40.351L22.5503 40.351C22.7141 40.2648 22.9101 40.2649 23.0739 40.351Z" fill="#D90002" stroke="#F2F2F2" stroke-width="0.3"/>
<path d="M37.6295 3.18104V3.33104H37.7795H41.3432C42.8324 3.33104 44.0442 4.54281 44.0442 6.03201V6.0407V6.04997V6.05983V6.07027V6.08129V6.09289V6.10507V6.11782V6.13114V6.14503V6.15949V6.17451V6.19009V6.20624V6.22294V6.24019V6.258V6.27636V6.29527V6.31472V6.33472V6.35525V6.37633V6.39794V6.42009V6.44277V6.46598V6.48972V6.51398V6.53876V6.56407V6.58989V6.61623V6.64308V6.67045V6.69832V6.7267V6.75558V6.78497V6.81485V6.84524V6.87611V6.90748V6.93934V6.97169V7.00453V7.03785V7.07165V7.10592V7.14068V7.17591V7.21161V7.24778V7.28442V7.32152V7.35909V7.39711V7.4356V7.47454V7.51393V7.55378V7.59407V7.63481V7.676V7.71762V7.75969V7.80219V7.84513V7.8885V7.9323V7.97653V8.02119V8.06627V8.11177V8.15769V8.20402V8.25077V8.29793V8.3455V8.39348V8.44187V8.49065V8.53984V8.58943V8.63941V8.68978V8.74054V8.7917V8.84324V8.89516V8.94747V9.00015V9.05322V9.10666V9.16047V9.21465V9.2692V9.32411V9.37939V9.43503V9.49103V9.54738V9.60409V9.66115V9.71856V9.77632V9.83442V9.89287V9.95166V10.0108V10.0702V10.13V10.1902V10.2506V10.3114V10.3725V10.4339V10.4957V10.5577V10.6201V10.6828V10.7458V10.8091V10.8727V10.9366V11.0008V11.0654V11.1302V11.1953V11.2607V11.3264V11.3923V11.4586V11.5251V11.592V11.6591V11.7265V11.7941V11.862V11.9302V11.9987V12.0674V12.1364V12.2056V12.2751V12.3449V12.4149V12.4851V12.5556V12.6264V12.6974V12.7686V12.8401V12.9118V12.9837V13.0559V13.1283V13.201V13.2738V13.3469V13.4202V13.4937V13.5674V13.6414V13.7156V13.7899V13.8645V13.9393V14.0143V14.0894V14.1648V14.2404V14.3161V14.3921V14.4682V14.5446V14.6211V14.6978V14.7746V14.8517V14.9289V15.0063V15.0839V15.1616V15.2395V15.3175V15.3957V15.4741V15.5526V15.6313V15.7102V15.7891V15.8683V15.9475V16.027V16.1065V16.1862V16.266V16.346V16.4261V16.5063V16.5866V16.6671V16.7477V16.8284V16.9092V16.9901V17.0712V17.1523V17.2336V17.315V17.3965V17.478V17.5597V17.6415V17.7233V17.8053V17.8873V17.9694V18.0516V18.1339V18.2163V18.2987V18.3812V18.4638V18.5465V18.6292V18.712V18.7949V18.8778V18.9608V19.0438V19.1269V19.21V19.2932V19.3765V19.4598V19.5431V19.6264V19.7098V19.7933V19.8767V19.9602V20.0438V20.1273V20.2109V20.2945V20.3781V20.4618V20.5454V20.6291V20.7128V20.7964V20.8801V20.9638V21.0475V21.1312V21.2149V21.2986V21.3822V21.4659V21.5496V21.6332V21.7168V21.8004V21.884V21.9675V22.0511V22.1345V22.218V22.3014V22.3848V22.4682V22.5515V22.6348V22.718V22.8012V22.8843V22.9674V23.0504V23.1333V23.2162V23.2991V23.3819V23.4646V23.5472V23.6298V23.7123V23.7947V23.8771V23.9593V24.0415V24.1236V24.2056V24.2876V24.3694V24.4511V24.5328V24.6143V24.6958V24.7771V24.8583V24.9395V25.0205V25.1014V25.1822V25.2628V25.3434V25.4238V25.5041V25.5843V25.6644V25.7443V25.8241V25.9037V25.9833V26.0626V26.1419V26.221V26.2999V26.3787V26.4573V26.5358V26.6142V26.6923V26.7703V26.8482V26.9259V27.0034V27.0807V27.1579V27.2349V27.3117V27.3884V27.4648V27.5411V27.6172V27.6931V27.7688V27.8443V27.9197V27.9948V28.0697V28.1444V28.219V28.2933V28.3674V28.4413V28.5149V28.5884V28.6616V28.7347V28.8075V28.88V28.9524V29.0245V29.0964V29.168V29.2394V29.3106V29.3815V29.4522V29.5226V29.5928V29.6628V29.7325V29.8019V29.8711V29.94V30.0086V30.077V30.1451V30.213V30.2806V30.3479V30.4149V30.4816V30.5481V30.6143V30.6802V30.7458V30.8111V30.8762V30.9409V31.0053V31.0695V31.1333V31.1968V31.2601V31.323V31.3856V31.4479V31.5099V31.5715V31.6329V31.6939V31.7546V31.8149V31.875V31.9347V31.994V32.0531V32.1118V32.1701V32.2281V32.2858V32.3431V32.4001V32.4567V32.513V32.5689V32.6244V32.6796V32.7344V32.7889V32.8429V32.8966V32.95V33.0029V33.0555V33.1077V33.1596V33.211V33.262V33.3127V33.363V33.4128V33.4623V33.5114V33.5601V33.6084V33.6562V33.7037V33.7507V33.7974V33.8436V33.8894V33.9348V33.9798V34.0243V34.0684V34.1121V34.1554V34.1982V34.2406V34.2825V34.324V34.3651V34.4057V34.4459V34.4856V34.5249V34.5637V34.6021V34.64V34.6774V34.7144V34.7509V34.787V34.8225V34.8576V34.8923V34.9264V34.9601V34.9933V35.026V35.0582V35.0899V35.1212V35.1519V35.1822V35.2119V35.2412V35.2699V35.2982V35.3259V35.3531V35.3798V35.406V35.4317V35.4569V35.4815V35.5057V35.5293V35.5523V35.5749V35.5969V35.6183V35.6393V35.6597V35.6795V35.6988V35.7176V35.7358V35.7535V35.7706V35.7871V35.8031V35.8186V35.8334V35.8477V35.8615V35.8746V35.8872V35.8993V35.9107V35.9216V35.9319V35.9416V35.9507V35.9592V35.9671C44.0442 37.4563 42.8324 38.6681 41.3432 38.6681H32.7903C32.4795 38.6681 32.2276 38.4161 32.2276 38.1054C32.2276 37.7946 32.4795 37.5426 32.7903 37.5426H41.3432C42.212 37.5426 42.9187 36.836 42.9187 35.9671V11.7339V11.5839H42.7687H2.85517H2.70517V11.7339V35.9671C2.70517 36.836 3.41183 37.5426 4.28065 37.5426H12.8335C13.1443 37.5426 13.3963 37.7946 13.3963 38.1054C13.3963 38.4161 13.1443 38.6681 12.8335 38.6681H4.28065C2.79146 38.6681 1.57969 37.4563 1.57969 35.9671V6.03201C1.57969 4.54281 2.79146 3.33104 4.28065 3.33104H7.84436H7.99436V3.18104V2.4683C7.99436 1.3721 8.88646 0.480078 9.98258 0.480078C11.0787 0.480078 11.9708 1.3721 11.9708 2.4683V3.18104V3.33104H12.1208H33.503H33.653V3.18104V2.4683C33.653 1.3721 34.5451 0.480078 35.6413 0.480078C36.7374 0.480078 37.6295 1.3721 37.6295 2.4683V3.18104ZM2.70517 10.3085V10.4585H2.85517H42.7687H42.9187V10.3085V6.03201C42.9187 5.16319 42.212 4.45653 41.3432 4.45653H37.7795H37.6295V4.60653V6.03201C37.6295 7.12821 36.7374 8.02023 35.6413 8.02023C34.5451 8.02023 33.653 7.12821 33.653 6.03201V4.60653V4.45653H33.503H12.1208H11.9708V4.60653V6.03201C11.9708 7.12821 11.0787 8.02023 9.98258 8.02023C8.88646 8.02023 7.99436 7.12821 7.99436 6.03201V4.60653V4.45653H7.84436H4.28065C3.41183 4.45653 2.70517 5.16319 2.70517 6.03201V10.3085ZM35.6413 1.60556C35.1654 1.60556 34.7785 1.99247 34.7785 2.4683V6.03201C34.7785 6.50784 35.1654 6.89475 35.6413 6.89475C36.1171 6.89475 36.504 6.50784 36.504 6.03201V2.4683C36.504 1.99247 36.1171 1.60556 35.6413 1.60556ZM9.98258 1.60556C9.50675 1.60556 9.11984 1.99247 9.11984 2.4683V6.03201C9.11984 6.50784 9.50675 6.89475 9.98258 6.89475C10.4584 6.89475 10.8453 6.50784 10.8453 6.03201V2.4683C10.8453 1.99247 10.4584 1.60556 9.98258 1.60556Z" fill="#171723" stroke="#F2F2F2" stroke-width="0.3"/>
</g>
<defs>
<clipPath id="clip0">
<rect width="45.6203" height="45.6203" fill="white" transform="translate(0 0.330078)"/>
</clipPath>
</defs>
</svg>
