<svg width="56" height="48" viewBox="0 0 56 48" fill="none" xmlns="http://www.w3.org/2000/svg">
<path d="M4.27734 11.6666L6.01505 11.3236C6.24561 11.2745 6.4837 11.2724 6.71508 11.3174C6.94647 11.3625 7.1664 11.4537 7.36171 11.5857C7.55702 11.7177 7.72369 11.8877 7.85178 12.0856C7.97987 12.2835 8.06673 12.5052 8.10716 12.7374C8.51492 15.0239 9.44476 20.4733 9.81441 22.573L11.1253 24.2536" stroke="#171723" stroke-miterlimit="10" stroke-linecap="round"/>
<path d="M8.05078 12.2309L8.98822 12.0442C9.21927 11.9951 9.45787 11.9931 9.68971 12.0384C9.92155 12.0836 10.1419 12.1751 10.3375 12.3075C10.5332 12.4398 10.7002 12.6102 10.8285 12.8086C10.9567 13.0069 11.0437 13.2291 11.0841 13.4618C11.591 16.3351 11.9721 18.9874 12.4103 21.3196L13.7098 23.1488" stroke="#171723" stroke-miterlimit="10" stroke-linecap="round"/>
<path d="M11.5312 14.318L12.2743 14.1732C12.5049 14.1241 12.743 14.122 12.9744 14.1671C13.2057 14.2121 13.4257 14.3033 13.621 14.4353C13.8163 14.5673 13.983 14.7373 14.1111 14.9352C14.2392 15.1331 14.326 15.3548 14.3665 15.587C14.8771 18.4603 15.6507 22.5226 15.6507 22.5226" stroke="#171723" stroke-miterlimit="10" stroke-linecap="round"/>
<path d="M19.0155 31.0524C17.7707 29.9468 16.2359 29.2203 14.5918 28.9583C12.9477 28.6963 11.263 28.9099 9.73627 29.5738C9.46408 29.7062 9.1777 29.8072 8.88266 29.8749C6.80579 30.2864 6.41328 28.5373 5.80355 27.2073C5.25861 26.026 4.10775 25.1 2.8159 24.4788C2.59355 24.3673 2.34307 24.3244 2.09628 24.3556C1.8495 24.3869 1.61758 24.4908 1.43005 24.6543C1.24252 24.8177 1.10783 25.0332 1.04313 25.2734C0.978443 25.5136 0.986676 25.7676 1.06677 26.0031C1.72425 27.9477 2.5202 29.8427 3.4485 31.6735C3.90974 32.7121 4.55529 33.6584 5.35388 34.4668C6.99252 35.9568 9.34377 36.2617 11.5083 36.719C13.6728 37.1763 16.0317 38.0566 16.9539 40.0687V46.6118" stroke="#171723" stroke-miterlimit="10" stroke-linecap="round"/>
<path d="M15.1289 24.3906C17.8841 25.0499 21.2261 25.4538 23.4173 28.9407C24.5269 30.724 25.2174 32.7357 25.437 34.8245V46.9504" stroke="#171723" stroke-miterlimit="10" stroke-linecap="round"/>
<path d="M2.95486 24.3915L1.46865 13.0354C1.42858 12.6166 1.54563 12.1978 1.79705 11.8605C2.04846 11.5232 2.4163 11.2913 2.8291 11.21V11.21C3.03319 11.169 3.24348 11.1696 3.44733 11.2119C3.65117 11.2542 3.84433 11.3373 4.01522 11.4562C4.18611 11.5751 4.33117 11.7274 4.44168 11.9038C4.55219 12.0802 4.62586 12.2772 4.65826 12.4828L6.46838 23.6294L8.05368 25.5119" stroke="#171723" stroke-miterlimit="10" stroke-linecap="round"/>
<path d="M51.8519 11.6666L50.1142 11.3236C49.8836 11.2745 49.6455 11.2724 49.4141 11.3174C49.1828 11.3625 48.9628 11.4537 48.7675 11.5857C48.5722 11.7177 48.4055 11.8877 48.2774 12.0856C48.1493 12.2835 48.0625 12.5052 48.022 12.7374C47.6143 15.0239 46.6845 20.4733 46.3148 22.573L45.0039 24.2536" stroke="#171723" stroke-miterlimit="10" stroke-linecap="round"/>
<path d="M48.077 12.2309L47.1395 12.0442C46.9085 11.9951 46.6699 11.9931 46.438 12.0384C46.2062 12.0836 45.9859 12.1751 45.7902 12.3075C45.5945 12.4398 45.4276 12.6102 45.2993 12.8086C45.171 13.0069 45.084 13.2291 45.0436 13.4618C44.5368 16.3351 44.1557 18.9874 43.7174 21.3196L42.418 23.1488" stroke="#171723" stroke-miterlimit="10" stroke-linecap="round"/>
<path d="M44.5955 14.318L43.8334 14.1732C43.6028 14.1241 43.3647 14.122 43.1333 14.1671C42.902 14.2121 42.682 14.3033 42.4867 14.4353C42.2914 14.5673 42.1247 14.7373 41.9966 14.9352C41.8686 15.1331 41.7817 15.3548 41.7413 15.587C41.2306 18.4603 40.457 22.5226 40.457 22.5226" stroke="#171723" stroke-miterlimit="10" stroke-linecap="round"/>
<path d="M37.125 31.0524C38.3698 29.9468 39.9047 29.2203 41.5487 28.9583C43.1928 28.6963 44.8775 28.9099 46.4042 29.5738C46.6764 29.7062 46.9628 29.8072 47.2579 29.8749C49.3347 30.2864 49.7272 28.5373 50.3369 27.2073C50.8819 26.026 52.0327 25.1 53.3246 24.4788C53.5469 24.3673 53.7974 24.3244 54.0442 24.3556C54.291 24.3869 54.5229 24.4908 54.7104 24.6543C54.898 24.8177 55.0327 25.0332 55.0974 25.2734C55.1621 25.5136 55.1538 25.7676 55.0737 26.0031C54.4162 27.9477 53.6203 29.8427 52.692 31.6735C52.2308 32.7121 51.5852 33.6584 50.7866 34.4668C49.148 35.9568 46.7967 36.2617 44.6322 36.719C42.4677 37.1763 40.1088 38.0566 39.1866 40.0687V46.6118" stroke="#171723" stroke-miterlimit="10" stroke-linecap="round"/>
<path d="M40.9995 24.3906C38.2444 25.0499 34.9023 25.4538 32.7111 28.9407C31.6016 30.724 30.911 32.7357 30.6914 34.8245V46.9504" stroke="#171723" stroke-miterlimit="10" stroke-linecap="round"/>
<path d="M53.173 24.3911L54.6592 13.035C54.7031 12.6127 54.5868 12.1892 54.3335 11.8484C54.0802 11.5076 53.7082 11.2742 53.2912 11.1944V11.1944C53.0871 11.1533 52.8768 11.154 52.6729 11.1963C52.4691 11.2386 52.2759 11.3217 52.105 11.4406C51.9342 11.5595 51.7891 11.7117 51.6786 11.8882C51.5681 12.0646 51.4944 12.2616 51.462 12.4672L49.6595 23.629L48.0742 25.5115" stroke="#171723" stroke-miterlimit="10" stroke-linecap="round"/>
<path d="M36.3682 19.852L31.5891 19.8514C31.2196 19.8509 30.8654 19.7028 30.6042 19.4395C30.343 19.1762 30.196 18.8192 30.1956 18.4469V13.6314C30.1956 13.5782 30.1746 13.5272 30.1372 13.4896C30.0999 13.452 30.0493 13.4309 29.9965 13.4308H26.811C26.7582 13.4309 26.7076 13.452 26.6703 13.4896C26.6329 13.5272 26.6119 13.5782 26.6119 13.6314V18.4468C26.6115 18.8191 26.4645 19.1761 26.2033 19.4394C25.9421 19.7027 25.5879 19.8508 25.2184 19.8513L20.4407 19.8521C20.2577 19.8521 20.0765 19.8158 19.9073 19.7452C19.7382 19.6747 19.5846 19.5712 19.4551 19.4408C19.3257 19.3104 19.223 19.1555 19.153 18.9851C19.0829 18.8147 19.0469 18.6321 19.0469 18.4476V9.17201C19.047 8.97633 19.0877 8.78284 19.1662 8.60388C19.2447 8.42492 19.3594 8.26444 19.503 8.13269L27.4662 0.836004C27.7222 0.599777 28.0573 0.46875 28.4044 0.46875C28.7514 0.46875 29.0853 0.599777 29.3413 0.836004L37.3057 8.13279C37.4492 8.26455 37.5639 8.42502 37.6425 8.60395C37.721 8.78288 37.7616 8.97635 37.7618 9.17201V18.4476C37.7618 18.8201 37.615 19.1773 37.3536 19.4407C37.0923 19.7041 36.7378 19.852 36.3682 19.852ZM26.811 12.6282H29.9965C30.366 12.6287 30.4216 12.6765 30.6829 12.9397C30.9441 13.203 30.892 13.2591 30.8924 13.6314L30.992 18.8481C30.9921 18.9013 31.0131 18.9523 31.0504 18.9899C31.0877 19.0275 31.1383 19.0487 31.1911 19.0487L36.7663 19.0495C36.8192 19.0495 36.8698 19.0284 36.9071 18.9908C36.9445 18.9531 36.9654 18.9021 36.9654 18.8489V8.87105C36.9654 8.84309 36.9596 8.81545 36.9484 8.78989C36.9371 8.76433 36.9207 8.7414 36.9002 8.72257L28.5377 1.02441C28.5012 0.990666 28.4534 0.971954 28.4038 0.971954C28.3542 0.971954 28.3064 0.990666 28.2698 1.02441L19.8088 8.82289C19.7883 8.84172 19.7719 8.86465 19.7607 8.89021C19.7495 8.91578 19.7437 8.94342 19.7437 8.97137L19.8433 18.8489C19.8433 18.9021 19.8642 18.9531 19.9016 18.9908C19.9389 19.0284 19.9895 19.0495 20.0424 19.0495L25.716 19.0489C25.7687 19.0489 25.8193 19.0277 25.8567 18.9901C25.894 18.9525 25.915 18.9015 25.9151 18.8483V13.6315C25.9155 13.2592 25.8634 13.2031 26.1246 12.9398C26.3859 12.6765 26.4415 12.6287 26.811 12.6282Z" fill="#D60000"/>
</svg>
