<svg width="54" height="43" viewBox="0 0 54 43" fill="none" xmlns="http://www.w3.org/2000/svg">
<path d="M33.8155 7.54102C42.6216 10.7725 49.0151 23.0925 49.0151 33.9314M4.98438 34.4026C4.98437 23.5637 11.3779 10.7725 20.184 7.54102" stroke="black" stroke-width="1.1"/>
<path d="M5.16892 34.0793H48.7247C49.2056 34.0793 49.9548 34.3746 50.7097 34.8774C51.4551 35.3739 52.0766 35.9865 52.346 36.4829C52.9344 37.5675 53.4279 39.6461 53.4493 41.8028H0.550107C0.553537 39.5755 0.643765 38.3271 1.48491 36.4571C2.16648 35.1054 3.64377 34.0793 5.16892 34.0793Z" stroke="#171723" stroke-width="1.1"/>
<path d="M34.336 2.63802L34.3351 2.64754L34.3345 2.65709L33.0342 24.5685C32.7728 25.7582 32.1414 26.6318 31.0088 26.7829H27.0017H22.9721C21.9183 26.7008 20.9188 25.7207 20.9188 24.6177V24.6013L20.9178 24.5848L20.7499 21.7791L20.7498 21.7781L20.5819 19.0629L20.2463 13.6372L20.2462 13.6348L19.6615 2.66376C19.6615 2.66324 19.6614 2.66271 19.6614 2.66219C19.6088 1.52633 20.5885 0.55 21.6492 0.55H32.3464C33.492 0.55 34.44 1.53581 34.336 2.63802Z" stroke="#D90002" stroke-width="1.1"/>
</svg>
