<svg width="44" height="44" viewBox="0 0 44 44" fill="none" xmlns="http://www.w3.org/2000/svg">
<path d="M14.6274 22.6437C14.6257 22.6426 14.6239 22.6417 14.6222 22.6406C14.5699 22.6058 14.525 22.5611 14.4901 22.5089C14.489 22.5073 14.4882 22.5055 14.4871 22.5039C14.4713 22.4797 14.4578 22.4541 14.4467 22.4274L14.4445 22.4214C14.4339 22.3949 14.4257 22.3675 14.4201 22.3396L14.4195 22.335C14.414 22.3065 14.4112 22.2775 14.4111 22.2484V18.4802C14.4111 18.3553 14.4609 18.2355 14.5495 18.1471C14.6382 18.0588 14.7584 18.0092 14.8837 18.0092C15.009 18.0092 15.1292 18.0588 15.2178 18.1471C15.3064 18.2355 15.3562 18.3553 15.3562 18.4802V21.1112L17.2228 19.2506C18.6123 17.8688 20.4949 17.0928 22.4577 17.0928C24.4204 17.0928 26.3031 17.8688 27.6925 19.2506C27.7364 19.2944 27.7712 19.3463 27.795 19.4034C27.8187 19.4606 27.831 19.5218 27.831 19.5837C27.831 19.6456 27.8187 19.7068 27.795 19.764C27.7713 19.8211 27.7365 19.873 27.6926 19.9168C27.6487 19.9605 27.5966 19.9952 27.5393 20.0189C27.4819 20.0426 27.4205 20.0548 27.3584 20.0548C27.2964 20.0548 27.2349 20.0426 27.1776 20.0189C27.1203 19.9952 27.0682 19.9606 27.0243 19.9168C25.8122 18.7114 24.1698 18.0345 22.4576 18.0345C20.7454 18.0345 19.1031 18.7114 17.891 19.9168L16.0244 21.7773H18.6641C18.7894 21.7773 18.9096 21.8269 18.9982 21.9152C19.0868 22.0036 19.1366 22.1234 19.1366 22.2483C19.1366 22.3732 19.0868 22.493 18.9982 22.5813C18.9096 22.6697 18.7894 22.7193 18.6641 22.7193H14.8837C14.8545 22.7192 14.8254 22.7164 14.7967 22.711C14.7952 22.7107 14.7937 22.7106 14.7922 22.7103C14.7641 22.7047 14.7367 22.6966 14.7101 22.686C14.7081 22.6852 14.706 22.6847 14.704 22.6838C14.6773 22.6728 14.6517 22.6593 14.6274 22.6436V22.6437ZM30.4957 26.6025C30.4955 26.6009 30.4953 26.5994 30.495 26.5979C30.4894 26.57 30.4813 26.5426 30.4707 26.5161C30.4699 26.5141 30.4693 26.512 30.4684 26.5101C30.4574 26.4834 30.4438 26.4578 30.428 26.4336C30.427 26.432 30.4262 26.4302 30.4251 26.4286C30.3902 26.3764 30.3453 26.3317 30.293 26.2969C30.2912 26.2958 30.2895 26.2949 30.2878 26.2938C30.2635 26.2781 30.2379 26.2646 30.2111 26.2536L30.2052 26.2514C30.1786 26.2408 30.151 26.2327 30.1229 26.2271L30.1187 26.2265C30.0899 26.221 30.0608 26.2182 30.0315 26.2181H26.2511C26.1258 26.2181 26.0056 26.2677 25.917 26.3561C25.8283 26.4444 25.7786 26.5642 25.7786 26.6891C25.7786 26.8141 25.8283 26.9339 25.917 27.0222C26.0056 27.1105 26.1258 27.1602 26.2511 27.1602H28.8907L27.0242 29.0206C25.8121 30.226 24.1698 30.903 22.4576 30.903C20.7453 30.903 19.103 30.226 17.8909 29.0206C17.802 28.9335 17.6822 28.8848 17.5576 28.8854C17.4329 28.8859 17.3135 28.9354 17.2254 29.0233C17.1372 29.1112 17.0875 29.2302 17.087 29.3545C17.0864 29.4787 17.1352 29.5981 17.2226 29.6867C18.6121 31.0686 20.4948 31.8446 22.4576 31.8446C24.4203 31.8446 26.303 31.0686 27.6925 29.6867L29.5589 27.8263V30.4573C29.5589 30.5822 29.6087 30.702 29.6974 30.7904C29.786 30.8787 29.9062 30.9283 30.0315 30.9283C30.1568 30.9283 30.277 30.8787 30.3656 30.7904C30.4543 30.702 30.504 30.5822 30.504 30.4573V26.6891C30.5039 26.6601 30.5012 26.631 30.4957 26.6025Z" fill="#D90002"/>
<path d="M43.2439 16.4605V21.2678H40.5185V41.8704C40.5185 42.2347 40.3749 42.584 40.1193 42.8416C39.8638 43.0992 39.5172 43.2439 39.1558 43.2439H5.08812C4.72671 43.2439 4.38012 43.0992 4.12456 42.8416C3.869 42.584 3.72541 42.2347 3.72541 41.8704V21.2678H1V16.4605L21.3111 1.26958C21.5458 1.0945 21.83 1 22.1219 1C22.4139 1 22.6981 1.0945 22.9328 1.26958L43.2439 16.4605Z" stroke="#171723" stroke-width="0.670538" stroke-linecap="round" stroke-linejoin="round"/>
</svg>
