<svg width="101" height="79" viewBox="0 0 101 79" fill="none" xmlns="http://www.w3.org/2000/svg">
<g clip-path="url(#clip0)">
<path d="M52.3555 17C40.2052 17 30.3555 26.8497 30.3555 39C30.3555 51.1503 40.2052 61 52.3555 61C64.5058 61 74.3555 51.1503 74.3555 39C74.3418 26.8554 64.5001 17.0137 52.3555 17ZM52.3555 59.5806C40.9891 59.5806 31.7748 50.3664 31.7748 39C31.7748 27.6336 40.9891 18.4194 52.3555 18.4194C63.7218 18.4194 72.9361 27.6336 72.9361 39C72.9232 50.361 63.7165 59.5677 52.3555 59.5806Z" fill="black"/>
<path d="M65.5571 36.0416C65.4512 35.8932 65.2922 35.7912 65.1131 35.7569L41.4962 31.132C41.1115 31.0569 40.7388 31.3079 40.6637 31.6926C40.6281 31.8746 40.6653 32.0632 40.7671 32.2182L46.2569 40.5501L44.7485 50.4142C44.7061 50.6915 44.831 50.9678 45.0671 51.1191L45.0797 51.1272C45.3237 51.2763 45.6334 51.2645 45.8652 51.0971L65.392 37.0315C65.711 36.8037 65.7849 36.3605 65.5571 36.0416ZM46.4074 48.9571L47.701 40.4945C47.7276 40.3207 47.6888 40.1432 47.5921 39.9965L42.8831 32.8479L63.2308 36.8366L46.4074 48.9571Z" fill="black"/>
</g>
<path d="M12.1886 32.9106L7.44778 33.7581L7.11555 31.8996L18.1408 29.9287L18.473 31.7872L13.7952 32.6234L14.05 34.0489C14.9975 34.0149 15.8892 34.1996 16.7252 34.6027C17.5612 35.0059 18.2643 35.59 18.8344 36.3549C19.4055 37.1251 19.7798 38.0063 19.9571 38.9986C20.1524 40.0906 20.0782 41.1306 19.7347 42.1184C19.3964 43.1054 18.8375 43.934 18.0579 44.6043C17.2784 45.2746 16.361 45.7041 15.3057 45.8927C14.2504 46.0813 13.2411 45.9963 12.2776 45.6376C11.3141 45.2789 10.5001 44.6957 9.83558 43.888C9.17634 43.0794 8.74911 42.1291 8.55391 41.037C8.37465 40.0343 8.42211 39.0722 8.69627 38.1509C8.97043 37.2297 9.43503 36.4342 10.0901 35.7644C10.746 35.1 11.53 34.6212 12.442 34.3282L12.1886 32.9106ZM10.86 37.7073C10.2157 38.6189 9.99298 39.6312 10.1919 40.7442C10.3909 41.8572 10.9505 42.7297 11.8707 43.3617C12.7909 43.9936 13.8233 44.2073 14.9678 44.0027C16.1124 43.7981 17.0068 43.24 17.6511 42.3284C18.2954 41.4168 18.5181 40.4044 18.3191 39.2914C18.1202 38.1784 17.5606 37.3059 16.6403 36.674C15.7201 36.0421 14.6877 35.8284 13.5432 36.033C12.3987 36.2376 11.5043 36.7957 10.86 37.7073Z" fill="#9595A2"/>
<path d="M88.0828 39.5447L86.8713 40.769C85.796 39.8452 85.1269 38.6482 84.8641 37.1782C84.6689 36.0862 84.7404 35.0467 85.0787 34.0598C85.4222 33.0719 85.9838 32.2428 86.7633 31.5725C87.5429 30.9022 88.4603 30.4728 89.5155 30.2841C90.5708 30.0955 91.5802 30.1805 92.5437 30.5392C93.5072 30.898 94.3186 31.4816 94.9778 32.2902C95.6423 33.0979 96.0721 34.0478 96.2674 35.1398C96.5151 36.5258 96.3262 37.8328 95.7005 39.0607L94.1326 38.382C94.3699 37.8303 94.535 37.3295 94.6279 36.8794C94.7208 36.4294 94.7213 35.9471 94.6293 35.4326C94.4304 34.3196 93.8708 33.4471 92.9505 32.8152C92.0303 32.1832 90.9979 31.9696 89.8534 32.1742C88.7089 32.3788 87.8145 32.9368 87.1702 33.8485C86.5259 34.7601 86.3032 35.7724 86.5021 36.8854C86.6814 37.8882 87.2083 38.7746 88.0828 39.5447Z" fill="#212133"/>
<path d="M46.6397 73.5144L45.8148 68.8996L56.84 66.9287L57.5608 70.9608C57.741 71.9688 57.6157 72.7985 57.1849 73.4498C56.7594 74.1001 56.082 74.5084 55.1527 74.6745C54.1079 74.8613 53.3117 74.5593 52.764 73.7687C52.7146 74.341 52.4839 74.8536 52.0718 75.3065C51.6598 75.7594 51.1125 76.0469 50.43 76.1689C49.4692 76.3406 48.6401 76.1881 47.9426 75.7114C47.2514 75.239 46.8171 74.5067 46.6397 73.5144ZM53.5646 72.6097C53.8626 72.8219 54.2478 72.8858 54.7203 72.8013C55.1928 72.7169 55.5321 72.5235 55.7381 72.2212C55.9441 71.9189 56.0087 71.5525 55.9317 71.122L55.5657 69.0744L52.6361 69.5981L53.0022 71.6457C53.0791 72.0762 53.2666 72.3975 53.5646 72.6097ZM50.1551 74.2676C50.6696 74.1756 51.0516 73.9637 51.3011 73.632C51.5516 73.3055 51.6369 72.9191 51.5572 72.4728L51.0926 69.874L47.7535 70.4709L48.2181 73.0697C48.2979 73.516 48.5118 73.8489 48.8598 74.0684C49.2141 74.2922 49.6458 74.3586 50.1551 74.2676Z" fill="#9595A2"/>
<path d="M54.7729 3.09464L55.6941 1.79222C56.6751 2.36995 57.2796 3.2967 57.5076 4.57248C57.6794 5.53325 57.5388 6.36835 57.0859 7.07778C56.634 7.79246 55.988 8.22489 55.148 8.37505C54.6702 8.46045 54.2096 8.39922 53.7661 8.19135C53.3226 7.98348 52.9633 7.67115 52.6884 7.25437C52.569 7.92042 52.2938 8.48704 51.8626 8.9542C51.4324 9.42662 50.9022 9.71913 50.2722 9.83175C49.2904 10.0073 48.3974 9.78493 47.593 9.1648C46.7949 8.54897 46.2987 7.69767 46.1044 6.6109C45.9758 5.89163 46.0172 5.19887 46.2286 4.53261C46.44 3.86635 46.7907 3.2971 47.2805 2.82486L48.6544 3.78204C47.843 4.57722 47.518 5.42633 47.6794 6.32935C47.7817 6.90161 48.0535 7.34605 48.4948 7.66268C48.937 7.98455 49.4311 8.09669 49.9771 7.99908C50.5441 7.89773 50.9712 7.60466 51.2584 7.1199C51.5456 6.63513 51.6253 6.03574 51.4977 5.32173L51.3006 4.21921L52.8127 3.94892L53.0097 5.05144C53.1083 5.6027 53.321 6.01978 53.6479 6.30267C53.9809 6.58988 54.3601 6.69547 54.7854 6.61945C55.1949 6.54625 55.5049 6.32559 55.7154 5.95747C55.9259 5.58935 55.9889 5.16903 55.9045 4.69652C55.7843 4.02451 55.4071 3.49055 54.7729 3.09464Z" fill="#9595A2"/>
<defs>
<clipPath id="clip0">
<rect width="44" height="44" fill="white" transform="translate(30.3555 17)"/>
</clipPath>
</defs>
</svg>
