<svg width="87" height="88" viewBox="0 0 87 88" fill="none" xmlns="http://www.w3.org/2000/svg">
<g clip-path="url(#clip0)">
<rect x="76.3281" y="53.8257" width="46.7011" height="52.3963" rx="15" transform="rotate(136.504 76.3281 53.8257)" fill="#D7EBFF"/>
<path d="M33.6544 77.754C14.9575 72.3351 4.33512 53.0425 9.75403 34.3456C15.1729 15.6487 34.4656 5.02631 53.1625 10.4452C56.154 11.3122 58.0129 14.6885 57.1459 17.68C56.7124 19.1757 56.0133 20.1891 54.5663 20.9858C53.4933 21.8909 52.4203 22.7959 51.9868 24.2917C51.1198 27.2832 52.9788 30.6594 55.9702 31.5264L62.7011 33.4772C73.1713 36.5118 79.0137 47.1228 75.9791 57.593C71.2104 74.0463 52.3513 83.1729 33.6544 77.754ZM22.8419 38.1388C19.8504 37.2718 16.4741 39.1307 15.6071 42.1222C14.7401 45.1137 16.599 48.4899 19.5905 49.357C22.582 50.224 25.9582 48.3651 26.8253 45.3736C27.6923 42.3821 25.8334 39.0059 22.8419 38.1388ZM29.7249 56.3477C26.7334 55.4807 23.3572 57.3396 22.4901 60.3311C21.6231 63.3226 23.482 66.6988 26.4735 67.5658C29.465 68.4328 32.8412 66.5739 33.7083 63.5824C34.5753 60.5909 32.7164 57.2147 29.7249 56.3477ZM48.4218 61.7666C45.4303 60.8996 42.054 62.7585 41.187 65.75C40.32 68.7415 42.1789 72.1177 45.1704 72.9847C48.1619 73.8518 51.5381 71.9928 52.4052 69.0013C53.2722 66.0098 51.4133 62.6336 48.4218 61.7666ZM63.975 50.0604C60.9835 49.1934 57.6073 51.0523 56.7403 54.0438C55.8733 57.0353 57.7322 60.4115 60.7237 61.2786C63.7152 62.1456 67.0914 60.2867 67.9584 57.2952C68.8254 54.3037 66.9665 50.9274 63.975 50.0604Z" fill="#CBE5FF"/>
</g>
<defs>
<clipPath id="clip0">
<rect width="70.0788" height="70.0788" fill="white" transform="matrix(0.960473 0.278373 0.278373 -0.960473 0 68)"/>
</clipPath>
</defs>
</svg>
